M48
; DRILL file {KiCad 7.0.6} date Fri Aug 18 05:18:53 2023
; FORMAT={-:-/ absolute / inch / decimal}
; #@! TF.CreationDate,2023-08-18T05:18:53-04:00
; #@! TF.GenerationSoftware,Kicad,Pcbnew,7.0.6
; #@! TF.FileFunction,Plated,1,4,PTH
FMAT,2
INCH
; #@! TA.AperFunction,Plated,PTH,ViaDrill
T1C0.0118
; #@! TA.AperFunction,Plated,PTH,ComponentDrill
T2C0.0118
; #@! TA.AperFunction,Plated,PTH,ViaDrill
T3C0.0157
; #@! TA.AperFunction,Plated,PTH,ComponentDrill
T4C0.0315
; #@! TA.AperFunction,Plated,PTH,ComponentDrill
T5C0.0394
; #@! TA.AperFunction,Plated,PTH,ComponentDrill
T6C0.0472
; #@! TA.AperFunction,Plated,PTH,ComponentDrill
T7C0.0512
%
G90
G05
T1
X4.736Y-5.0246
X4.7364Y-4.7998
X4.7364Y-4.886
X4.7364Y-5.1242
X4.7596Y-4.0148
X4.7667Y-4.0404
X4.7699Y-4.0711
X4.7837Y-4.09
X4.789Y-4.685
X4.7909Y-4.6197
X4.7909Y-4.6496
X4.7923Y-4.0502
X4.7937Y-4.9453
X4.7965Y-4.3181
X4.7965Y-4.3498
X4.7965Y-4.3815
X4.7965Y-4.4132
X4.7965Y-4.4449
X4.7965Y-4.4766
X4.7965Y-4.5083
X4.8031Y-4.8122
X4.8126Y-4.7661
X4.8169Y-4.685
X4.8173Y-4.9224
X4.8201Y-4.6504
X4.8232Y-4.7252
X4.8252Y-4.5799
X4.8272Y-4.3181
X4.8272Y-4.3498
X4.8272Y-4.3815
X4.8272Y-4.4132
X4.8272Y-4.4449
X4.8272Y-4.4766
X4.8272Y-4.5083
X4.8508Y-4.8902
X4.863Y-4.1303
X4.8661Y-4.9893
X4.8717Y-4.3181
X4.8717Y-4.3516
X4.8717Y-4.3744
X4.8717Y-4.4071
X4.8717Y-4.4406
X4.8795Y-4.2398
X4.8933Y-4.2173
X4.8988Y-4.2803
X4.9016Y-4.6358
X4.9047Y-4.474
X4.9118Y-4.6768
X4.9136Y-4.012
X4.9138Y-4.1957
X4.9163Y-4.0376
X4.9205Y-4.7213
X4.9232Y-4.2567
X4.9256Y-4.3299
X4.9264Y-4.7827
X4.9272Y-4.576
X4.9289Y-4.0947
X4.9299Y-4.6083
X4.9304Y-4.6977
X4.9333Y-4.0707
X4.9339Y-4.4126
X4.9343Y-4.3728
X4.9354Y-4.8213
X4.936Y-4.0474
X4.937Y-4.1744
X4.9382Y-4.8732
X4.9465Y-4.2346
X4.9488Y-4.2941
X4.9539Y-4.5858
X4.9583Y-4.3276
X4.9669Y-4.1346
X4.9685Y-4.8724
X4.9717Y-4.2087
X4.9728Y-4.982
X4.9728Y-4.2728
X4.9831Y-4.4685
X4.9898Y-4.3047
X4.9909Y-4.3354
X4.9941Y-4.1819
X4.998Y-4.2504
X4.9992Y-4.8717
X5.0043Y-4.2764
X5.0118Y-4.5157
X5.0138Y-4.1598
X5.0142Y-4.6661
X5.0142Y-4.7128
X5.0142Y-4.7594
X5.0232Y-4.2224
X5.0264Y-4.3024
X5.0343Y-4.3315
X5.0362Y-4.1409
X5.0421Y-4.574
X5.0516Y-4.2768
X5.052Y-5.4167
X5.0563Y-4.1882
X5.0581Y-4.8772
X5.061Y-4.6661
X5.061Y-4.7128
X5.061Y-4.7594
X5.0612Y-4.027
X5.0614Y-4.3063
X5.0616Y-4.0022
X5.0707Y-4.0675
X5.0764Y-4.165
X5.0768Y-4.2484
X5.0793Y-4.0451
X5.0793Y-4.0888
X5.0835Y-4.9642
X5.0854Y-4.2819
X5.0856Y-4.8772
X5.0902Y-4.3953
X5.0902Y-4.4205
X5.0902Y-4.4453
X5.0902Y-4.4713
X5.0902Y-4.4972
X5.0902Y-4.5232
X5.0902Y-4.5492
X5.0929Y-5.0598
X5.0976Y-4.126
X5.1016Y-4.3724
X5.1028Y-5.447
X5.1079Y-4.6661
X5.1079Y-4.7128
X5.1079Y-4.7594
X5.113Y-5.0835
X5.1132Y-4.8772
X5.115Y-4.2445
X5.1327Y-4.3382
X5.1366Y-4.2173
X5.1382Y-5.1047
X5.1407Y-4.8772
X5.1407Y-4.9874
X5.1512Y-4.3236
X5.161Y-4.6114
X5.1638Y-4.8087
X5.1661Y-4.1949
X5.1683Y-4.9874
X5.1683Y-5.015
X5.1764Y-4.3016
X5.1785Y-5.5522
X5.189Y-4.1705
X5.1898Y-4.4937
X5.1906Y-4.3854
X5.1906Y-4.4654
X5.1959Y-4.9874
X5.1959Y-5.015
X5.1959Y-5.0425
X5.1992Y-4.5354
X5.2114Y-4.1469
X5.2122Y-4.4177
X5.2148Y-4.01
X5.2163Y-4.0364
X5.2224Y-4.498
X5.2234Y-4.2709
X5.2234Y-4.9874
X5.2234Y-5.015
X5.2234Y-5.0425
X5.2234Y-5.0701
X5.2252Y-4.3752
X5.228Y-4.5496
X5.2297Y-4.0896
X5.2339Y-4.4437
X5.235Y-4.4024
X5.2386Y-4.7063
X5.2411Y-4.0455
X5.2476Y-4.1126
X5.2496Y-4.5776
X5.251Y-4.2433
X5.251Y-4.2709
X5.251Y-4.9047
X5.251Y-4.9323
X5.251Y-4.9598
X5.251Y-4.9874
X5.251Y-5.015
X5.251Y-5.0425
X5.251Y-5.0701
X5.251Y-5.0976
X5.2522Y-4.075
X5.2567Y-4.3689
X5.2622Y-4.4673
X5.2661Y-4.3984
X5.276Y-4.7079
X5.2785Y-4.2157
X5.2785Y-4.2433
X5.2785Y-4.2709
X5.2785Y-4.9323
X5.2785Y-4.9598
X5.2785Y-4.9874
X5.2785Y-5.015
X5.2785Y-5.0425
X5.2785Y-5.0701
X5.2785Y-5.0976
X5.2898Y-4.6087
X5.2898Y-4.6421
X5.2909Y-4.3669
X5.2961Y-4.3972
X5.2961Y-4.5724
X5.3061Y-4.1882
X5.3061Y-4.2157
X5.3061Y-4.2433
X5.3061Y-4.2709
X5.3061Y-4.9323
X5.3061Y-4.9598
X5.3061Y-4.9874
X5.3061Y-5.015
X5.3061Y-5.0425
X5.3061Y-5.0701
X5.3061Y-5.0976
X5.311Y-4.7079
X5.3126Y-4.7583
X5.313Y-4.7941
X5.313Y-4.8339
X5.3272Y-4.6421
X5.3276Y-4.6087
X5.3283Y-4.5724
X5.3337Y-4.1606
X5.3337Y-4.1882
X5.3337Y-4.2157
X5.3337Y-4.2433
X5.3337Y-4.2709
X5.3337Y-4.4638
X5.3337Y-4.9323
X5.3337Y-4.9598
X5.3337Y-4.9874
X5.3337Y-5.015
X5.3337Y-5.0425
X5.3337Y-5.0701
X5.3337Y-5.0976
X5.3508Y-4.7079
X5.3528Y-4.8339
X5.3587Y-4.5724
X5.3587Y-4.6087
X5.361Y-4.6421
X5.3612Y-4.1882
X5.3612Y-4.2157
X5.3612Y-4.2433
X5.3612Y-4.2709
X5.3612Y-4.3811
X5.3612Y-4.4087
X5.3612Y-4.4362
X5.3612Y-4.4638
X5.3612Y-4.9323
X5.3612Y-4.9598
X5.3612Y-4.9874
X5.3612Y-5.015
X5.3612Y-5.0425
X5.3612Y-5.0701
X5.3612Y-5.0976
X5.3616Y-4.0124
X5.3663Y-4.0341
X5.3754Y-4.0947
X5.3789Y-4.073
X5.3846Y-4.5724
X5.3852Y-4.0506
X5.3888Y-4.1882
X5.3888Y-4.2157
X5.3888Y-4.2433
X5.3888Y-4.2709
X5.3888Y-4.3811
X5.3888Y-4.4087
X5.3888Y-4.4362
X5.3888Y-4.4638
X5.3888Y-4.9323
X5.3888Y-4.9598
X5.3888Y-4.9874
X5.3888Y-5.015
X5.3888Y-5.0425
X5.3888Y-5.0701
X5.3888Y-5.0976
X5.3902Y-4.6087
X5.3909Y-4.6421
X5.4039Y-4.8339
X5.4053Y-4.125
X5.4163Y-4.1882
X5.4163Y-4.2157
X5.4163Y-4.2433
X5.4163Y-4.3811
X5.4163Y-4.4087
X5.4163Y-4.4362
X5.4163Y-4.4638
X5.4163Y-4.9323
X5.4163Y-4.9598
X5.4163Y-4.9874
X5.4163Y-5.015
X5.4163Y-5.0425
X5.4163Y-5.0701
X5.4163Y-5.0976
X5.4173Y-4.5724
X5.4183Y-5.2425
X5.4264Y-4.6087
X5.4327Y-4.6469
X5.4437Y-4.8339
X5.4439Y-4.1882
X5.4439Y-4.2157
X5.4439Y-4.2433
X5.4439Y-4.3811
X5.4439Y-4.4087
X5.4439Y-4.4362
X5.4439Y-4.4638
X5.4439Y-4.9323
X5.4439Y-4.9598
X5.4439Y-4.9874
X5.4439Y-5.015
X5.4439Y-5.0425
X5.4439Y-5.0701
X5.4439Y-5.0976
X5.4439Y-5.1252
X5.4439Y-5.2906
X5.4439Y-5.3181
X5.4439Y-5.3457
X5.4439Y-5.3732
X5.4439Y-5.4008
X5.4439Y-5.4283
X5.4439Y-5.4559
X5.4439Y-5.4835
X5.4439Y-5.511
X5.4439Y-5.5386
X5.4439Y-5.5661
X5.4439Y-5.5937
X5.4439Y-5.6213
X5.4439Y-5.6488
X5.4439Y-5.6764
X5.4439Y-5.7039
X5.4439Y-5.7315
X5.4439Y-5.7591
X5.4445Y-5.1984
X5.4469Y-4.5724
X5.4638Y-4.6087
X5.4715Y-4.3811
X5.4715Y-4.4087
X5.4715Y-4.4362
X5.4715Y-4.4638
X5.4715Y-4.9323
X5.4715Y-4.9598
X5.4715Y-4.9874
X5.4715Y-5.015
X5.4715Y-5.0425
X5.4715Y-5.0701
X5.4715Y-5.0976
X5.4715Y-5.1252
X5.4715Y-5.2906
X5.4715Y-5.3181
X5.4715Y-5.3457
X5.4715Y-5.3732
X5.4715Y-5.4008
X5.4715Y-5.4283
X5.4715Y-5.4559
X5.4715Y-5.4835
X5.4715Y-5.511
X5.4715Y-5.5386
X5.4715Y-5.5661
X5.4715Y-5.5937
X5.4715Y-5.6213
X5.4715Y-5.6488
X5.4715Y-5.6764
X5.4715Y-5.7039
X5.4715Y-5.7315
X5.4715Y-5.7591
X5.4736Y-4.5724
X5.4815Y-4.8339
X5.499Y-4.3811
X5.499Y-4.4087
X5.499Y-4.4362
X5.499Y-4.4638
X5.499Y-4.9323
X5.499Y-4.9598
X5.499Y-4.9874
X5.499Y-5.015
X5.499Y-5.0425
X5.499Y-5.0701
X5.499Y-5.0976
X5.499Y-5.1252
X5.499Y-5.1528
X5.499Y-5.1803
X5.499Y-5.2079
X5.499Y-5.6213
X5.499Y-5.6488
X5.499Y-5.6764
X5.499Y-5.7039
X5.499Y-5.7315
X5.499Y-5.7591
X5.5063Y-4.5724
X5.5063Y-4.6087
X5.5063Y-4.6469
X5.5063Y-4.6843
X5.5063Y-4.7276
X5.5063Y-4.7654
X5.5063Y-4.8024
X5.5266Y-3.6921
X5.5266Y-3.7197
X5.5266Y-3.7472
X5.5266Y-3.7748
X5.5266Y-3.8024
X5.5266Y-3.8299
X5.5266Y-3.8575
X5.5266Y-3.885
X5.5266Y-3.9126
X5.5266Y-3.9402
X5.5266Y-3.9677
X5.5266Y-3.9953
X5.5266Y-4.0228
X5.5266Y-4.0504
X5.5266Y-4.078
X5.5266Y-4.3811
X5.5266Y-4.4087
X5.5266Y-4.4362
X5.5266Y-4.9323
X5.5266Y-4.9598
X5.5266Y-4.9874
X5.5266Y-5.015
X5.5266Y-5.0425
X5.5266Y-5.0701
X5.5266Y-5.0976
X5.5266Y-5.1252
X5.5266Y-5.1528
X5.5266Y-5.1803
X5.5266Y-5.2079
X5.5303Y-5.3646
X5.5303Y-5.3949
X5.5307Y-5.3339
X5.537Y-4.5268
X5.537Y-5.5075
X5.5374Y-5.478
X5.5374Y-5.5374
X5.5378Y-5.5673
X5.539Y-4.5724
X5.5394Y-5.3075
X5.5484Y-5.4173
X5.5541Y-3.7472
X5.5541Y-3.7748
X5.5541Y-3.8024
X5.5541Y-3.8299
X5.5541Y-3.8575
X5.5541Y-3.885
X5.5541Y-3.9126
X5.5541Y-3.9402
X5.5541Y-3.9677
X5.5541Y-3.9953
X5.5541Y-4.0228
X5.5541Y-4.0504
X5.5541Y-4.078
X5.5541Y-4.3535
X5.5541Y-4.3811
X5.5541Y-4.4087
X5.5541Y-4.9323
X5.5541Y-4.9598
X5.5541Y-4.9874
X5.5541Y-5.015
X5.5541Y-5.0425
X5.5541Y-5.0701
X5.5541Y-5.0976
X5.5541Y-5.1252
X5.5541Y-5.1528
X5.5541Y-5.1803
X5.5559Y-5.5898
X5.5559Y-5.6252
X5.5559Y-5.6602
X5.5559Y-5.6988
X5.5559Y-5.7339
X5.5567Y-4.6453
X5.5579Y-4.6854
X5.5665Y-4.4894
X5.5673Y-4.5232
X5.5717Y-5.3031
X5.5728Y-5.4717
X5.5795Y-5.4177
X5.5817Y-3.7472
X5.5817Y-3.7748
X5.5817Y-3.8024
X5.5817Y-3.8299
X5.5817Y-3.8575
X5.5817Y-3.885
X5.5817Y-3.9126
X5.5817Y-3.9402
X5.5817Y-3.9677
X5.5817Y-3.9953
X5.5817Y-4.0228
X5.5817Y-4.0504
X5.5817Y-4.078
X5.5817Y-4.1882
X5.5817Y-4.2157
X5.5817Y-4.2433
X5.5817Y-4.2709
X5.5817Y-4.2984
X5.5817Y-4.326
X5.5817Y-4.3535
X5.5817Y-4.3811
X5.5817Y-4.7669
X5.5817Y-4.7945
X5.5817Y-4.9323
X5.5817Y-4.9598
X5.5817Y-4.9874
X5.5817Y-5.015
X5.5817Y-5.0425
X5.5817Y-5.0701
X5.5817Y-5.0976
X5.5817Y-5.1252
X5.5817Y-5.1528
X5.5817Y-5.1803
X5.5846Y-5.7594
X5.5878Y-4.5039
X5.589Y-4.6531
X5.5894Y-4.4661
X5.5894Y-4.6185
X5.598Y-5.4717
X5.6002Y-5.3031
X5.6071Y-4.561
X5.6093Y-3.7472
X5.6093Y-3.7748
X5.6093Y-3.8024
X5.6093Y-3.8299
X5.6093Y-3.8575
X5.6093Y-3.885
X5.6093Y-3.9126
X5.6093Y-3.9402
X5.6093Y-3.9677
X5.6093Y-3.9953
X5.6093Y-4.0228
X5.6093Y-4.0504
X5.6093Y-4.078
X5.6093Y-4.1882
X5.6093Y-4.2157
X5.6093Y-4.2433
X5.6093Y-4.2709
X5.6093Y-4.2984
X5.6093Y-4.326
X5.6093Y-4.3535
X5.6093Y-4.7394
X5.6093Y-4.7669
X5.6093Y-4.7945
X5.6093Y-4.9323
X5.6093Y-4.9598
X5.6093Y-4.9874
X5.6093Y-5.015
X5.6093Y-5.0425
X5.6093Y-5.0701
X5.6093Y-5.0976
X5.6093Y-5.1252
X5.6098Y-5.4177
X5.6098Y-5.4449
X5.6098Y-5.5902
X5.6098Y-5.6256
X5.6098Y-5.6606
X5.6098Y-5.6992
X5.6106Y-4.4453
X5.6251Y-4.863
X5.6288Y-5.3031
X5.6368Y-3.6921
X5.6368Y-3.7197
X5.6368Y-3.7472
X5.6368Y-3.7748
X5.6368Y-3.8024
X5.6368Y-3.8299
X5.6368Y-3.8575
X5.6368Y-3.885
X5.6368Y-3.9126
X5.6368Y-3.9402
X5.6368Y-3.9677
X5.6368Y-3.9953
X5.6368Y-4.0228
X5.6368Y-4.0504
X5.6368Y-4.078
X5.6368Y-4.2709
X5.6368Y-4.7669
X5.6368Y-4.7945
X5.6368Y-4.9323
X5.6368Y-4.9598
X5.6368Y-4.9874
X5.6368Y-5.015
X5.6368Y-5.0425
X5.6368Y-5.0701
X5.6368Y-5.0976
X5.652Y-4.863
X5.6567Y-5.7429
X5.6574Y-5.3031
X5.6644Y-4.2709
X5.6644Y-4.7669
X5.6644Y-4.7945
X5.6732Y-5.6299
X5.6736Y-5.5661
X5.6736Y-5.5961
X5.686Y-5.3031
X5.6919Y-4.2709
X5.6919Y-4.5189
X5.6919Y-4.7669
X5.6919Y-4.7945
X5.6919Y-5.4283
X5.7016Y-5.7417
X5.7028Y-5.0055
X5.7146Y-5.3031
X5.7195Y-4.5189
X5.7195Y-4.7669
X5.7195Y-4.7945
X5.7195Y-5.4283
X5.7445Y-4.2898
X5.747Y-4.5189
X5.747Y-4.5465
X5.747Y-4.574
X5.747Y-4.6016
X5.747Y-4.6291
X5.747Y-4.6567
X5.747Y-4.6843
X5.747Y-4.7118
X5.747Y-4.7394
X5.747Y-4.7669
X5.747Y-4.7945
X5.747Y-5.3732
X5.747Y-5.4008
X5.747Y-5.4283
X5.7516Y-5.2173
X5.7539Y-5.2681
X5.7567Y-4.863
X5.7697Y-4.6445
X5.7697Y-5.7913
X5.7705Y-4.4071
X5.7746Y-4.5189
X5.7746Y-4.5465
X5.7746Y-4.7669
X5.7746Y-4.7945
X5.7746Y-4.9323
X5.7746Y-4.9598
X5.7746Y-4.9874
X5.7746Y-5.015
X5.7746Y-5.0425
X5.7746Y-5.0701
X5.7746Y-5.0976
X5.7746Y-5.1252
X5.7746Y-5.1528
X5.7748Y-4.4961
X5.7752Y-4.7409
X5.7819Y-5.2154
X5.7835Y-5.298
X5.7846Y-4.863
X5.7878Y-5.2394
X5.7965Y-4.6445
X5.8012Y-4.3811
X5.802Y-4.4055
X5.8022Y-4.5189
X5.8022Y-4.5465
X5.8022Y-4.7669
X5.8022Y-4.7945
X5.8022Y-4.9323
X5.8022Y-4.9598
X5.8022Y-4.9874
X5.8022Y-5.015
X5.8022Y-5.0425
X5.8022Y-5.0701
X5.8022Y-5.0976
X5.8022Y-5.1252
X5.8022Y-5.1528
X5.8024Y-4.4961
X5.8028Y-5.337
X5.8028Y-5.3768
X5.8028Y-5.4217
X5.8028Y-5.4693
X5.8028Y-5.5102
X5.8028Y-5.5528
X5.8028Y-5.5917
X5.8028Y-5.635
X5.8043Y-4.7409
X5.8126Y-4.863
X5.8146Y-5.2472
X5.8157Y-4.3567
X5.8185Y-5.2717
X5.8283Y-4.6449
X5.8297Y-4.3811
X5.8297Y-4.5189
X5.8297Y-4.5465
X5.8297Y-4.7669
X5.8297Y-4.7945
X5.8297Y-4.9323
X5.8297Y-4.9598
X5.8297Y-4.9874
X5.8297Y-5.015
X5.8297Y-5.0425
X5.8297Y-5.0701
X5.8297Y-5.0976
X5.8297Y-5.1252
X5.8297Y-5.1528
X5.8297Y-5.1803
X5.8299Y-4.4055
X5.8299Y-4.4965
X5.8323Y-4.7409
X5.8402Y-5.2917
X5.8406Y-4.3575
X5.8406Y-4.863
X5.8406Y-5.2484
X5.8445Y-5.337
X5.8445Y-5.3768
X5.8445Y-5.4217
X5.8445Y-5.4693
X5.8445Y-5.5102
X5.8445Y-5.5528
X5.8445Y-5.5917
X5.8445Y-5.635
X5.8551Y-4.6449
X5.8559Y-5.6681
X5.8559Y-5.7031
X5.8563Y-5.7421
X5.8563Y-5.7772
X5.8567Y-5.8118
X5.8573Y-4.3811
X5.8573Y-4.5189
X5.8573Y-4.5465
X5.8573Y-4.7669
X5.8573Y-4.7945
X5.8573Y-4.9323
X5.8573Y-4.9598
X5.8573Y-4.9874
X5.8573Y-5.015
X5.8573Y-5.0425
X5.8573Y-5.0701
X5.8573Y-5.0976
X5.8573Y-5.1252
X5.8573Y-5.1528
X5.8573Y-5.1803
X5.8575Y-4.4051
X5.8575Y-4.4961
X5.8598Y-4.7409
X5.8638Y-4.3575
X5.8705Y-4.6681
X5.8705Y-4.6937
X5.8705Y-4.7201
T2
X5.6608Y-4.2071
T3
X5.6961Y-5.5134
T5
X4.7148Y-4.2378
X4.8148Y-4.2378
X5.6811Y-4.3439
X5.6811Y-4.4439
X5.6811Y-4.5886
X5.6811Y-4.6886
T6
X5.1665Y-5.7713
X5.3634Y-5.7713
T7
X4.6799Y-3.7096
X4.8299Y-3.7096
X4.9799Y-3.7096
X5.1299Y-3.7096
X5.2799Y-3.7096
X5.4299Y-3.7112
T4
G00X4.7555Y-5.7339
M15
G01X4.8421Y-5.7339
M16
G05
G00X4.9878Y-5.5606
M15
G01X4.9878Y-5.6472
M16
G05
T5
G00X4.7496Y-5.4878
M15
G01X4.848Y-5.4878
M16
G05
T0
M30
