%TF.GenerationSoftware,KiCad,Pcbnew,7.0.6*%
%TF.CreationDate,2023-08-18T05:18:53-04:00*%
%TF.ProjectId,esp-lightthing,6573702d-6c69-4676-9874-7468696e672e,rev?*%
%TF.SameCoordinates,Original*%
%TF.FileFunction,Other,Comment*%
%FSLAX46Y46*%
G04 Gerber Fmt 4.6, Leading zero omitted, Abs format (unit mm)*
G04 Created by KiCad (PCBNEW 7.0.6) date 2023-08-18 05:18:53*
%MOMM*%
%LPD*%
G01*
G04 APERTURE LIST*
%ADD10C,0.070000*%
%ADD11C,0.150000*%
G04 APERTURE END LIST*
D10*
X123760729Y-128445232D02*
X123760729Y-128045232D01*
X123989300Y-128445232D02*
X123817871Y-128216661D01*
X123989300Y-128045232D02*
X123760729Y-128273804D01*
X124160729Y-128235708D02*
X124294062Y-128235708D01*
X124351205Y-128445232D02*
X124160729Y-128445232D01*
X124160729Y-128445232D02*
X124160729Y-128045232D01*
X124160729Y-128045232D02*
X124351205Y-128045232D01*
X124522634Y-128235708D02*
X124655967Y-128235708D01*
X124713110Y-128445232D02*
X124522634Y-128445232D01*
X124522634Y-128445232D02*
X124522634Y-128045232D01*
X124522634Y-128045232D02*
X124713110Y-128045232D01*
X124884539Y-128445232D02*
X124884539Y-128045232D01*
X124884539Y-128045232D02*
X125036920Y-128045232D01*
X125036920Y-128045232D02*
X125075015Y-128064280D01*
X125075015Y-128064280D02*
X125094062Y-128083327D01*
X125094062Y-128083327D02*
X125113110Y-128121423D01*
X125113110Y-128121423D02*
X125113110Y-128178565D01*
X125113110Y-128178565D02*
X125094062Y-128216661D01*
X125094062Y-128216661D02*
X125075015Y-128235708D01*
X125075015Y-128235708D02*
X125036920Y-128254756D01*
X125036920Y-128254756D02*
X124884539Y-128254756D01*
X125360729Y-128045232D02*
X125436920Y-128045232D01*
X125436920Y-128045232D02*
X125475015Y-128064280D01*
X125475015Y-128064280D02*
X125513110Y-128102375D01*
X125513110Y-128102375D02*
X125532158Y-128178565D01*
X125532158Y-128178565D02*
X125532158Y-128311899D01*
X125532158Y-128311899D02*
X125513110Y-128388089D01*
X125513110Y-128388089D02*
X125475015Y-128426185D01*
X125475015Y-128426185D02*
X125436920Y-128445232D01*
X125436920Y-128445232D02*
X125360729Y-128445232D01*
X125360729Y-128445232D02*
X125322634Y-128426185D01*
X125322634Y-128426185D02*
X125284539Y-128388089D01*
X125284539Y-128388089D02*
X125265491Y-128311899D01*
X125265491Y-128311899D02*
X125265491Y-128178565D01*
X125265491Y-128178565D02*
X125284539Y-128102375D01*
X125284539Y-128102375D02*
X125322634Y-128064280D01*
X125322634Y-128064280D02*
X125360729Y-128045232D01*
X125703587Y-128045232D02*
X125703587Y-128369042D01*
X125703587Y-128369042D02*
X125722634Y-128407137D01*
X125722634Y-128407137D02*
X125741682Y-128426185D01*
X125741682Y-128426185D02*
X125779777Y-128445232D01*
X125779777Y-128445232D02*
X125855968Y-128445232D01*
X125855968Y-128445232D02*
X125894063Y-128426185D01*
X125894063Y-128426185D02*
X125913110Y-128407137D01*
X125913110Y-128407137D02*
X125932158Y-128369042D01*
X125932158Y-128369042D02*
X125932158Y-128045232D01*
X126065492Y-128045232D02*
X126294063Y-128045232D01*
X126179777Y-128445232D02*
X126179777Y-128045232D01*
D11*
%TO.C,REF\u002A\u002A*%
X126770000Y-134190000D02*
G75*
G03*
X126770000Y-134190000I-3200000J0D01*
G01*
%TD*%
M02*
