%TF.GenerationSoftware,KiCad,Pcbnew,7.0.6*%
%TF.CreationDate,2023-08-18T05:18:53-04:00*%
%TF.ProjectId,esp-lightthing,6573702d-6c69-4676-9874-7468696e672e,rev?*%
%TF.SameCoordinates,Original*%
%TF.FileFunction,Legend,Top*%
%TF.FilePolarity,Positive*%
%FSLAX46Y46*%
G04 Gerber Fmt 4.6, Leading zero omitted, Abs format (unit mm)*
G04 Created by KiCad (PCBNEW 7.0.6) date 2023-08-18 05:18:53*
%MOMM*%
%LPD*%
G01*
G04 APERTURE LIST*
G04 Aperture macros list*
%AMRoundRect*
0 Rectangle with rounded corners*
0 $1 Rounding radius*
0 $2 $3 $4 $5 $6 $7 $8 $9 X,Y pos of 4 corners*
0 Add a 4 corners polygon primitive as box body*
4,1,4,$2,$3,$4,$5,$6,$7,$8,$9,$2,$3,0*
0 Add four circle primitives for the rounded corners*
1,1,$1+$1,$2,$3*
1,1,$1+$1,$4,$5*
1,1,$1+$1,$6,$7*
1,1,$1+$1,$8,$9*
0 Add four rect primitives between the rounded corners*
20,1,$1+$1,$2,$3,$4,$5,0*
20,1,$1+$1,$4,$5,$6,$7,0*
20,1,$1+$1,$6,$7,$8,$9,0*
20,1,$1+$1,$8,$9,$2,$3,0*%
G04 Aperture macros list end*
%ADD10C,0.125000*%
%ADD11C,0.300000*%
%ADD12C,0.120000*%
%ADD13R,0.350000X0.550000*%
%ADD14R,0.400000X0.350000*%
%ADD15R,2.450000X1.930000*%
%ADD16RoundRect,0.135000X0.135000X0.185000X-0.135000X0.185000X-0.135000X-0.185000X0.135000X-0.185000X0*%
%ADD17RoundRect,0.140000X0.170000X-0.140000X0.170000X0.140000X-0.170000X0.140000X-0.170000X-0.140000X0*%
%ADD18C,2.500000*%
%ADD19C,0.990600*%
%ADD20C,0.787400*%
%ADD21RoundRect,0.135000X0.185000X-0.135000X0.185000X0.135000X-0.185000X0.135000X-0.185000X-0.135000X0*%
%ADD22C,1.152000*%
%ADD23RoundRect,0.140000X0.140000X0.170000X-0.140000X0.170000X-0.140000X-0.170000X0.140000X-0.170000X0*%
%ADD24RoundRect,0.062500X-0.062500X0.375000X-0.062500X-0.375000X0.062500X-0.375000X0.062500X0.375000X0*%
%ADD25RoundRect,0.062500X-0.375000X0.062500X-0.375000X-0.062500X0.375000X-0.062500X0.375000X0.062500X0*%
%ADD26R,3.450000X3.450000*%
%ADD27RoundRect,0.150000X0.150000X-0.512500X0.150000X0.512500X-0.150000X0.512500X-0.150000X-0.512500X0*%
%ADD28RoundRect,0.140000X-0.170000X0.140000X-0.170000X-0.140000X0.170000X-0.140000X0.170000X0.140000X0*%
%ADD29RoundRect,0.135000X-0.135000X-0.185000X0.135000X-0.185000X0.135000X0.185000X-0.135000X0.185000X0*%
%ADD30C,3.200000*%
%ADD31RoundRect,0.250000X-0.300000X-0.300000X0.300000X-0.300000X0.300000X0.300000X-0.300000X0.300000X0*%
%ADD32RoundRect,0.140000X-0.140000X-0.170000X0.140000X-0.170000X0.140000X0.170000X-0.140000X0.170000X0*%
%ADD33R,0.650000X1.050000*%
%ADD34RoundRect,0.218750X-0.256250X0.218750X-0.256250X-0.218750X0.256250X-0.218750X0.256250X0.218750X0*%
%ADD35RoundRect,0.135000X-0.185000X0.135000X-0.185000X-0.135000X0.185000X-0.135000X0.185000X0.135000X0*%
%ADD36R,1.700000X1.700000*%
%ADD37O,1.700000X1.700000*%
%ADD38RoundRect,0.250000X0.550000X-1.500000X0.550000X1.500000X-0.550000X1.500000X-0.550000X-1.500000X0*%
%ADD39R,0.800000X0.900000*%
%ADD40RoundRect,0.250000X0.325000X0.650000X-0.325000X0.650000X-0.325000X-0.650000X0.325000X-0.650000X0*%
%ADD41RoundRect,0.250000X-0.650000X0.325000X-0.650000X-0.325000X0.650000X-0.325000X0.650000X0.325000X0*%
%ADD42RoundRect,0.750000X-2.000000X-0.750000X2.000000X-0.750000X2.000000X0.750000X-2.000000X0.750000X0*%
%ADD43RoundRect,0.750000X-0.750000X-2.000000X0.750000X-2.000000X0.750000X2.000000X-0.750000X2.000000X0*%
%ADD44R,1.500000X2.000000*%
%ADD45R,3.800000X2.000000*%
%ADD46R,3.700000X1.100000*%
%ADD47C,1.600000*%
G04 APERTURE END LIST*
D10*
X119254140Y-142272309D02*
X119254140Y-142629452D01*
X119254140Y-142629452D02*
X119230331Y-142700880D01*
X119230331Y-142700880D02*
X119182712Y-142748500D01*
X119182712Y-142748500D02*
X119111283Y-142772309D01*
X119111283Y-142772309D02*
X119063664Y-142772309D01*
X119730330Y-142772309D02*
X119492235Y-142772309D01*
X119492235Y-142772309D02*
X119492235Y-142272309D01*
X120182711Y-142724690D02*
X120158902Y-142748500D01*
X120158902Y-142748500D02*
X120087473Y-142772309D01*
X120087473Y-142772309D02*
X120039854Y-142772309D01*
X120039854Y-142772309D02*
X119968426Y-142748500D01*
X119968426Y-142748500D02*
X119920807Y-142700880D01*
X119920807Y-142700880D02*
X119896997Y-142653261D01*
X119896997Y-142653261D02*
X119873188Y-142558023D01*
X119873188Y-142558023D02*
X119873188Y-142486595D01*
X119873188Y-142486595D02*
X119896997Y-142391357D01*
X119896997Y-142391357D02*
X119920807Y-142343738D01*
X119920807Y-142343738D02*
X119968426Y-142296119D01*
X119968426Y-142296119D02*
X120039854Y-142272309D01*
X120039854Y-142272309D02*
X120087473Y-142272309D01*
X120087473Y-142272309D02*
X120158902Y-142296119D01*
X120158902Y-142296119D02*
X120182711Y-142319928D01*
X120539854Y-142272309D02*
X120539854Y-142629452D01*
X120539854Y-142629452D02*
X120516045Y-142700880D01*
X120516045Y-142700880D02*
X120468426Y-142748500D01*
X120468426Y-142748500D02*
X120396997Y-142772309D01*
X120396997Y-142772309D02*
X120349378Y-142772309D01*
X121016044Y-142772309D02*
X120777949Y-142772309D01*
X120777949Y-142772309D02*
X120777949Y-142272309D01*
X121468425Y-142724690D02*
X121444616Y-142748500D01*
X121444616Y-142748500D02*
X121373187Y-142772309D01*
X121373187Y-142772309D02*
X121325568Y-142772309D01*
X121325568Y-142772309D02*
X121254140Y-142748500D01*
X121254140Y-142748500D02*
X121206521Y-142700880D01*
X121206521Y-142700880D02*
X121182711Y-142653261D01*
X121182711Y-142653261D02*
X121158902Y-142558023D01*
X121158902Y-142558023D02*
X121158902Y-142486595D01*
X121158902Y-142486595D02*
X121182711Y-142391357D01*
X121182711Y-142391357D02*
X121206521Y-142343738D01*
X121206521Y-142343738D02*
X121254140Y-142296119D01*
X121254140Y-142296119D02*
X121325568Y-142272309D01*
X121325568Y-142272309D02*
X121373187Y-142272309D01*
X121373187Y-142272309D02*
X121444616Y-142296119D01*
X121444616Y-142296119D02*
X121468425Y-142319928D01*
X121825568Y-142272309D02*
X121825568Y-142629452D01*
X121825568Y-142629452D02*
X121801759Y-142700880D01*
X121801759Y-142700880D02*
X121754140Y-142748500D01*
X121754140Y-142748500D02*
X121682711Y-142772309D01*
X121682711Y-142772309D02*
X121635092Y-142772309D01*
X122301758Y-142772309D02*
X122063663Y-142772309D01*
X122063663Y-142772309D02*
X122063663Y-142272309D01*
X122754139Y-142724690D02*
X122730330Y-142748500D01*
X122730330Y-142748500D02*
X122658901Y-142772309D01*
X122658901Y-142772309D02*
X122611282Y-142772309D01*
X122611282Y-142772309D02*
X122539854Y-142748500D01*
X122539854Y-142748500D02*
X122492235Y-142700880D01*
X122492235Y-142700880D02*
X122468425Y-142653261D01*
X122468425Y-142653261D02*
X122444616Y-142558023D01*
X122444616Y-142558023D02*
X122444616Y-142486595D01*
X122444616Y-142486595D02*
X122468425Y-142391357D01*
X122468425Y-142391357D02*
X122492235Y-142343738D01*
X122492235Y-142343738D02*
X122539854Y-142296119D01*
X122539854Y-142296119D02*
X122611282Y-142272309D01*
X122611282Y-142272309D02*
X122658901Y-142272309D01*
X122658901Y-142272309D02*
X122730330Y-142296119D01*
X122730330Y-142296119D02*
X122754139Y-142319928D01*
X123111282Y-142272309D02*
X123111282Y-142629452D01*
X123111282Y-142629452D02*
X123087473Y-142700880D01*
X123087473Y-142700880D02*
X123039854Y-142748500D01*
X123039854Y-142748500D02*
X122968425Y-142772309D01*
X122968425Y-142772309D02*
X122920806Y-142772309D01*
X123587472Y-142772309D02*
X123349377Y-142772309D01*
X123349377Y-142772309D02*
X123349377Y-142272309D01*
X124039853Y-142724690D02*
X124016044Y-142748500D01*
X124016044Y-142748500D02*
X123944615Y-142772309D01*
X123944615Y-142772309D02*
X123896996Y-142772309D01*
X123896996Y-142772309D02*
X123825568Y-142748500D01*
X123825568Y-142748500D02*
X123777949Y-142700880D01*
X123777949Y-142700880D02*
X123754139Y-142653261D01*
X123754139Y-142653261D02*
X123730330Y-142558023D01*
X123730330Y-142558023D02*
X123730330Y-142486595D01*
X123730330Y-142486595D02*
X123754139Y-142391357D01*
X123754139Y-142391357D02*
X123777949Y-142343738D01*
X123777949Y-142343738D02*
X123825568Y-142296119D01*
X123825568Y-142296119D02*
X123896996Y-142272309D01*
X123896996Y-142272309D02*
X123944615Y-142272309D01*
X123944615Y-142272309D02*
X124016044Y-142296119D01*
X124016044Y-142296119D02*
X124039853Y-142319928D01*
D11*
G36*
X116475382Y-123204454D02*
G01*
X116503834Y-123205360D01*
X116531470Y-123206870D01*
X116558290Y-123208984D01*
X116584295Y-123211702D01*
X116609484Y-123215023D01*
X116633857Y-123218949D01*
X116657415Y-123223478D01*
X116680157Y-123228612D01*
X116702083Y-123234349D01*
X116723193Y-123240690D01*
X116743488Y-123247635D01*
X116762966Y-123255184D01*
X116781630Y-123263338D01*
X116799477Y-123272094D01*
X116816509Y-123281455D01*
X116832657Y-123291393D01*
X116847764Y-123301880D01*
X116861829Y-123312917D01*
X116874852Y-123324503D01*
X116886833Y-123336639D01*
X116897773Y-123349324D01*
X116907670Y-123362559D01*
X116916526Y-123376344D01*
X116924340Y-123390678D01*
X116931112Y-123405561D01*
X116936842Y-123420994D01*
X116941530Y-123436977D01*
X116945177Y-123453509D01*
X116947781Y-123470591D01*
X116949344Y-123488222D01*
X116949865Y-123506403D01*
X116949476Y-123522766D01*
X116948307Y-123538607D01*
X116946359Y-123553927D01*
X116943631Y-123568725D01*
X116938783Y-123587644D01*
X116932549Y-123605636D01*
X116924929Y-123622701D01*
X116915925Y-123638838D01*
X116905535Y-123654048D01*
X116902737Y-123657732D01*
X116890993Y-123671960D01*
X116878368Y-123685375D01*
X116864861Y-123697978D01*
X116850473Y-123709767D01*
X116835203Y-123720744D01*
X116819051Y-123730907D01*
X116802018Y-123740258D01*
X116788665Y-123746738D01*
X116779574Y-123750874D01*
X116765681Y-123756788D01*
X116751479Y-123762354D01*
X116736967Y-123767573D01*
X116722147Y-123772444D01*
X116707017Y-123776967D01*
X116691578Y-123781142D01*
X116675830Y-123784969D01*
X116659773Y-123788449D01*
X116643407Y-123791581D01*
X116626732Y-123794365D01*
X116615508Y-123796051D01*
X116598655Y-123798376D01*
X116581784Y-123800456D01*
X116564893Y-123802292D01*
X116547982Y-123803882D01*
X116531052Y-123805228D01*
X116514103Y-123806329D01*
X116497135Y-123807186D01*
X116480148Y-123807798D01*
X116463141Y-123808165D01*
X116446114Y-123808287D01*
X116434801Y-123808233D01*
X116417827Y-123807947D01*
X116400845Y-123807417D01*
X116383858Y-123806642D01*
X116366864Y-123805622D01*
X116349863Y-123804358D01*
X116332856Y-123802849D01*
X116315843Y-123801095D01*
X116298823Y-123799097D01*
X116281797Y-123796853D01*
X116264764Y-123794365D01*
X116253481Y-123792548D01*
X116236836Y-123789532D01*
X116220525Y-123786168D01*
X116204550Y-123782456D01*
X116188909Y-123778397D01*
X116173604Y-123773990D01*
X116158633Y-123769235D01*
X116143997Y-123764132D01*
X116129696Y-123758682D01*
X116115730Y-123752884D01*
X116102098Y-123746738D01*
X116084576Y-123738014D01*
X116067912Y-123728511D01*
X116052107Y-123718230D01*
X116037160Y-123707171D01*
X116023072Y-123695333D01*
X116009843Y-123682716D01*
X115997473Y-123669321D01*
X115985961Y-123655147D01*
X115983233Y-123651475D01*
X115973190Y-123636156D01*
X115964532Y-123619830D01*
X115957259Y-123602496D01*
X115951371Y-123584155D01*
X115947865Y-123569738D01*
X115945137Y-123554755D01*
X115943189Y-123539204D01*
X115942020Y-123523087D01*
X115941631Y-123506403D01*
X115941674Y-123500756D01*
X115942323Y-123484198D01*
X115943752Y-123468213D01*
X115945960Y-123452801D01*
X115948947Y-123437962D01*
X115952713Y-123423696D01*
X115958947Y-123405567D01*
X115966566Y-123388457D01*
X115975571Y-123372365D01*
X115985961Y-123357293D01*
X115988758Y-123353676D01*
X116000485Y-123339688D01*
X116013070Y-123326468D01*
X116026514Y-123314014D01*
X116040816Y-123302328D01*
X116055977Y-123291408D01*
X116071997Y-123281256D01*
X116088876Y-123271871D01*
X116102098Y-123265335D01*
X116111149Y-123261244D01*
X116125003Y-123255391D01*
X116139193Y-123249879D01*
X116153717Y-123244709D01*
X116168576Y-123239880D01*
X116183770Y-123235393D01*
X116199299Y-123231246D01*
X116215163Y-123227441D01*
X116231362Y-123223978D01*
X116247895Y-123220855D01*
X116264764Y-123218074D01*
X116276120Y-123216389D01*
X116293148Y-123214064D01*
X116310170Y-123211984D01*
X116327186Y-123210148D01*
X116344195Y-123208557D01*
X116361198Y-123207212D01*
X116378194Y-123206110D01*
X116395184Y-123205254D01*
X116412167Y-123204642D01*
X116429144Y-123204275D01*
X116446114Y-123204153D01*
X116475382Y-123204454D01*
G37*
G36*
X116475382Y-122058467D02*
G01*
X116503834Y-122059373D01*
X116531470Y-122060883D01*
X116558290Y-122062996D01*
X116584295Y-122065714D01*
X116609484Y-122069036D01*
X116633857Y-122072961D01*
X116657415Y-122077491D01*
X116680157Y-122082624D01*
X116702083Y-122088361D01*
X116723193Y-122094703D01*
X116743488Y-122101648D01*
X116762966Y-122109197D01*
X116781630Y-122117350D01*
X116799477Y-122126107D01*
X116816509Y-122135468D01*
X116832657Y-122145406D01*
X116847764Y-122155893D01*
X116861829Y-122166929D01*
X116874852Y-122178516D01*
X116886833Y-122190652D01*
X116897773Y-122203337D01*
X116907670Y-122216572D01*
X116916526Y-122230356D01*
X116924340Y-122244690D01*
X116931112Y-122259574D01*
X116936842Y-122275007D01*
X116941530Y-122290990D01*
X116945177Y-122307522D01*
X116947781Y-122324603D01*
X116949344Y-122342235D01*
X116949865Y-122360416D01*
X116949476Y-122376779D01*
X116948307Y-122392620D01*
X116946359Y-122407940D01*
X116943631Y-122422738D01*
X116938783Y-122441657D01*
X116932549Y-122459649D01*
X116924929Y-122476713D01*
X116915925Y-122492851D01*
X116905535Y-122508060D01*
X116902737Y-122511744D01*
X116890993Y-122525973D01*
X116878368Y-122539388D01*
X116864861Y-122551990D01*
X116850473Y-122563780D01*
X116835203Y-122574756D01*
X116819051Y-122584920D01*
X116802018Y-122594271D01*
X116788665Y-122600751D01*
X116779574Y-122604886D01*
X116765681Y-122610801D01*
X116751479Y-122616367D01*
X116736967Y-122621585D01*
X116722147Y-122626456D01*
X116707017Y-122630979D01*
X116691578Y-122635154D01*
X116675830Y-122638982D01*
X116659773Y-122642462D01*
X116643407Y-122645594D01*
X116626732Y-122648378D01*
X116615508Y-122650064D01*
X116598655Y-122652389D01*
X116581784Y-122654469D01*
X116564893Y-122656304D01*
X116547982Y-122657895D01*
X116531052Y-122659241D01*
X116514103Y-122660342D01*
X116497135Y-122661199D01*
X116480148Y-122661810D01*
X116463141Y-122662177D01*
X116446114Y-122662300D01*
X116434801Y-122662245D01*
X116417827Y-122661960D01*
X116400845Y-122661430D01*
X116383858Y-122660655D01*
X116366864Y-122659635D01*
X116349863Y-122658371D01*
X116332856Y-122656862D01*
X116315843Y-122655108D01*
X116298823Y-122653109D01*
X116281797Y-122650866D01*
X116264764Y-122648378D01*
X116253481Y-122646560D01*
X116236836Y-122643544D01*
X116220525Y-122640181D01*
X116204550Y-122636469D01*
X116188909Y-122632410D01*
X116173604Y-122628002D01*
X116158633Y-122623248D01*
X116143997Y-122618145D01*
X116129696Y-122612695D01*
X116115730Y-122606896D01*
X116102098Y-122600751D01*
X116084576Y-122592027D01*
X116067912Y-122582524D01*
X116052107Y-122572243D01*
X116037160Y-122561183D01*
X116023072Y-122549345D01*
X116009843Y-122536728D01*
X115997473Y-122523333D01*
X115985961Y-122509159D01*
X115983233Y-122505487D01*
X115973190Y-122490169D01*
X115964532Y-122473843D01*
X115957259Y-122456509D01*
X115951371Y-122438168D01*
X115947865Y-122423751D01*
X115945137Y-122408767D01*
X115943189Y-122393217D01*
X115942020Y-122377099D01*
X115941631Y-122360416D01*
X115941674Y-122354769D01*
X115942323Y-122338210D01*
X115943752Y-122322225D01*
X115945960Y-122306813D01*
X115948947Y-122291975D01*
X115952713Y-122277709D01*
X115958947Y-122259580D01*
X115966566Y-122242469D01*
X115975571Y-122226378D01*
X115985961Y-122211305D01*
X115988758Y-122207689D01*
X116000485Y-122193701D01*
X116013070Y-122180480D01*
X116026514Y-122168027D01*
X116040816Y-122156340D01*
X116055977Y-122145421D01*
X116071997Y-122135269D01*
X116088876Y-122125883D01*
X116102098Y-122119348D01*
X116111149Y-122115256D01*
X116125003Y-122109403D01*
X116139193Y-122103892D01*
X116153717Y-122098722D01*
X116168576Y-122093893D01*
X116183770Y-122089405D01*
X116199299Y-122085259D01*
X116215163Y-122081454D01*
X116231362Y-122077990D01*
X116247895Y-122074868D01*
X116264764Y-122072087D01*
X116276120Y-122070401D01*
X116293148Y-122068076D01*
X116310170Y-122065996D01*
X116327186Y-122064161D01*
X116344195Y-122062570D01*
X116361198Y-122061224D01*
X116378194Y-122060123D01*
X116395184Y-122059266D01*
X116412167Y-122058655D01*
X116429144Y-122058287D01*
X116446114Y-122058165D01*
X116475382Y-122058467D01*
G37*
G36*
X116363682Y-121212230D02*
G01*
X116363635Y-121220097D01*
X116363254Y-121235502D01*
X116362493Y-121250466D01*
X116360637Y-121272085D01*
X116357925Y-121292712D01*
X116354356Y-121312348D01*
X116349930Y-121330991D01*
X116344649Y-121348643D01*
X116338510Y-121365304D01*
X116331515Y-121380972D01*
X116323664Y-121395649D01*
X116314956Y-121409334D01*
X116308659Y-121417896D01*
X116298441Y-121429704D01*
X116287295Y-121440269D01*
X116275223Y-121449591D01*
X116262222Y-121457670D01*
X116248295Y-121464506D01*
X116233440Y-121470099D01*
X116217658Y-121474449D01*
X116200948Y-121477556D01*
X116183311Y-121479421D01*
X116164747Y-121480042D01*
X116152266Y-121479766D01*
X116134312Y-121478316D01*
X116117279Y-121475623D01*
X116101168Y-121471687D01*
X116085977Y-121466508D01*
X116071707Y-121460086D01*
X116058358Y-121452422D01*
X116045930Y-121443514D01*
X116034422Y-121433364D01*
X116023836Y-121421970D01*
X116014171Y-121409334D01*
X116008226Y-121400321D01*
X116000028Y-121385975D01*
X115992693Y-121370637D01*
X115986221Y-121354307D01*
X115980611Y-121336986D01*
X115975865Y-121318672D01*
X115971982Y-121299367D01*
X115968961Y-121279071D01*
X115966804Y-121257782D01*
X115965845Y-121243039D01*
X115965270Y-121227855D01*
X115965078Y-121212230D01*
X115965078Y-120996808D01*
X116363682Y-120996808D01*
X116363682Y-121212230D01*
G37*
G36*
X116926418Y-121188416D02*
G01*
X116926394Y-121193953D01*
X116926029Y-121210513D01*
X116925226Y-121226995D01*
X116923985Y-121243400D01*
X116922306Y-121259727D01*
X116920190Y-121275977D01*
X116919355Y-121281393D01*
X116916183Y-121297226D01*
X116912005Y-121312442D01*
X116906823Y-121327039D01*
X116900636Y-121341018D01*
X116893445Y-121354379D01*
X116890858Y-121358724D01*
X116882271Y-121371140D01*
X116872448Y-121382629D01*
X116861388Y-121393191D01*
X116849092Y-121402825D01*
X116835560Y-121411532D01*
X116820773Y-121419127D01*
X116804441Y-121425151D01*
X116789651Y-121428970D01*
X116773787Y-121431698D01*
X116756850Y-121433335D01*
X116738839Y-121433880D01*
X116720820Y-121433335D01*
X116703856Y-121431698D01*
X116687947Y-121428970D01*
X116673094Y-121425151D01*
X116656664Y-121419127D01*
X116641753Y-121411532D01*
X116637148Y-121408733D01*
X116624122Y-121399717D01*
X116612281Y-121389774D01*
X116601624Y-121378903D01*
X116592153Y-121367105D01*
X116583867Y-121354379D01*
X116581403Y-121349994D01*
X116574662Y-121336427D01*
X116568901Y-121322242D01*
X116564118Y-121307439D01*
X116560314Y-121292017D01*
X116557489Y-121275977D01*
X116556735Y-121270569D01*
X116554764Y-121254293D01*
X116553231Y-121237940D01*
X116552137Y-121221509D01*
X116551480Y-121205001D01*
X116551261Y-121188416D01*
X116551261Y-120996808D01*
X116926418Y-120996808D01*
X116926418Y-121188416D01*
G37*
G36*
X117351730Y-125343683D02*
G01*
X115539766Y-125343683D01*
X115539766Y-124970761D01*
X115777500Y-124970761D01*
X115965078Y-124970761D01*
X115965078Y-124757171D01*
X116926418Y-124757171D01*
X116926418Y-124938521D01*
X116628930Y-124938521D01*
X116628930Y-125129397D01*
X117113996Y-125129397D01*
X117113996Y-124170988D01*
X116628930Y-124170988D01*
X116628930Y-124360765D01*
X116926418Y-124360765D01*
X116926418Y-124543947D01*
X115965078Y-124543947D01*
X115965078Y-124331822D01*
X115777500Y-124331822D01*
X115777500Y-124970761D01*
X115539766Y-124970761D01*
X115539766Y-123506403D01*
X115754052Y-123506403D01*
X115754109Y-123515177D01*
X115754561Y-123532473D01*
X115755465Y-123549435D01*
X115756822Y-123566061D01*
X115758631Y-123582353D01*
X115760892Y-123598310D01*
X115763606Y-123613932D01*
X115766771Y-123629219D01*
X115770389Y-123644171D01*
X115774459Y-123658789D01*
X115778981Y-123673071D01*
X115783956Y-123687019D01*
X115792266Y-123707312D01*
X115801593Y-123726852D01*
X115811938Y-123745639D01*
X115819325Y-123757810D01*
X115830975Y-123775515D01*
X115843308Y-123792556D01*
X115856323Y-123808934D01*
X115870021Y-123824649D01*
X115884401Y-123839700D01*
X115899464Y-123854088D01*
X115915210Y-123867813D01*
X115931639Y-123880875D01*
X115948750Y-123893273D01*
X115966543Y-123905007D01*
X115972638Y-123908776D01*
X115991239Y-123919696D01*
X116010316Y-123930037D01*
X116029870Y-123939798D01*
X116043171Y-123945983D01*
X116056683Y-123951911D01*
X116070408Y-123957581D01*
X116084344Y-123962993D01*
X116098492Y-123968148D01*
X116112852Y-123973045D01*
X116127423Y-123977685D01*
X116142207Y-123982067D01*
X116157202Y-123986191D01*
X116172409Y-123990058D01*
X116187827Y-123993668D01*
X116203437Y-123997039D01*
X116219123Y-124000193D01*
X116234887Y-124003130D01*
X116250728Y-124005849D01*
X116266646Y-124008351D01*
X116282641Y-124010635D01*
X116298714Y-124012701D01*
X116314864Y-124014550D01*
X116331092Y-124016182D01*
X116347396Y-124017596D01*
X116363778Y-124018792D01*
X116380237Y-124019771D01*
X116396774Y-124020532D01*
X116413388Y-124021076D01*
X116430079Y-124021402D01*
X116446847Y-124021511D01*
X116463572Y-124021402D01*
X116480226Y-124021076D01*
X116496809Y-124020532D01*
X116513319Y-124019771D01*
X116529758Y-124018792D01*
X116546126Y-124017596D01*
X116562422Y-124016182D01*
X116578647Y-124014550D01*
X116594800Y-124012701D01*
X116610881Y-124010635D01*
X116626891Y-124008351D01*
X116642829Y-124005849D01*
X116658696Y-124003130D01*
X116674491Y-124000193D01*
X116690215Y-123997039D01*
X116705867Y-123993668D01*
X116721411Y-123990054D01*
X116736721Y-123986174D01*
X116751797Y-123982028D01*
X116766637Y-123977616D01*
X116781243Y-123972938D01*
X116795614Y-123967993D01*
X116809751Y-123962783D01*
X116823653Y-123957306D01*
X116837320Y-123951563D01*
X116850752Y-123945554D01*
X116870461Y-123936041D01*
X116889641Y-123925929D01*
X116908294Y-123915218D01*
X116926418Y-123903908D01*
X116938179Y-123896070D01*
X116955273Y-123883771D01*
X116971710Y-123870821D01*
X116987490Y-123857221D01*
X117002613Y-123842970D01*
X117017079Y-123828069D01*
X117030889Y-123812518D01*
X117044042Y-123796316D01*
X117056537Y-123779463D01*
X117068376Y-123761960D01*
X117079558Y-123743807D01*
X117086568Y-123731331D01*
X117096234Y-123712026D01*
X117104883Y-123692012D01*
X117110084Y-123678277D01*
X117114832Y-123664226D01*
X117119128Y-123649860D01*
X117122972Y-123635180D01*
X117126364Y-123620185D01*
X117129304Y-123604875D01*
X117131791Y-123589250D01*
X117133826Y-123573310D01*
X117135409Y-123557056D01*
X117136539Y-123540486D01*
X117137218Y-123523602D01*
X117137444Y-123506403D01*
X117137387Y-123497742D01*
X117136935Y-123480657D01*
X117136030Y-123463890D01*
X117134674Y-123447441D01*
X117132865Y-123431309D01*
X117130604Y-123415496D01*
X117127890Y-123400000D01*
X117124725Y-123384821D01*
X117121107Y-123369961D01*
X117117037Y-123355418D01*
X117112514Y-123341192D01*
X117107540Y-123327285D01*
X117099230Y-123307019D01*
X117089903Y-123287469D01*
X117079558Y-123268633D01*
X117072176Y-123256461D01*
X117060557Y-123238756D01*
X117048280Y-123221715D01*
X117035346Y-123205337D01*
X117021756Y-123189622D01*
X117007508Y-123174571D01*
X116992604Y-123160183D01*
X116977043Y-123146458D01*
X116960825Y-123133397D01*
X116943950Y-123120999D01*
X116926418Y-123109264D01*
X116908294Y-123098207D01*
X116889641Y-123087703D01*
X116870461Y-123077753D01*
X116850752Y-123068357D01*
X116837320Y-123062401D01*
X116823653Y-123056691D01*
X116809751Y-123051227D01*
X116795614Y-123046009D01*
X116781243Y-123041037D01*
X116766637Y-123036312D01*
X116751797Y-123031832D01*
X116736721Y-123027599D01*
X116721411Y-123023612D01*
X116705867Y-123019871D01*
X116690215Y-123016366D01*
X116674491Y-123013088D01*
X116658696Y-123010035D01*
X116642829Y-123007209D01*
X116626891Y-123004608D01*
X116610881Y-123002234D01*
X116594800Y-123000086D01*
X116578647Y-122998164D01*
X116562422Y-122996468D01*
X116546126Y-122994999D01*
X116529758Y-122993755D01*
X116513319Y-122992737D01*
X116496809Y-122991946D01*
X116480226Y-122991381D01*
X116463572Y-122991042D01*
X116446847Y-122990929D01*
X116430079Y-122991036D01*
X116413388Y-122991358D01*
X116396774Y-122991895D01*
X116380237Y-122992646D01*
X116363778Y-122993612D01*
X116347396Y-122994792D01*
X116331092Y-122996188D01*
X116314864Y-122997798D01*
X116298714Y-122999622D01*
X116282641Y-123001662D01*
X116266646Y-123003916D01*
X116250728Y-123006384D01*
X116234887Y-123009068D01*
X116219123Y-123011966D01*
X116203437Y-123015078D01*
X116187827Y-123018406D01*
X116172409Y-123021928D01*
X116157202Y-123025716D01*
X116142207Y-123029770D01*
X116127423Y-123034091D01*
X116112852Y-123038678D01*
X116098492Y-123043530D01*
X116084344Y-123048649D01*
X116070408Y-123054035D01*
X116056683Y-123059686D01*
X116043171Y-123065604D01*
X116023299Y-123074979D01*
X116003904Y-123084954D01*
X115984985Y-123095527D01*
X115966543Y-123106700D01*
X115954605Y-123114536D01*
X115937267Y-123126828D01*
X115920611Y-123139764D01*
X115904637Y-123153344D01*
X115889347Y-123167568D01*
X115874738Y-123182435D01*
X115860813Y-123197947D01*
X115847570Y-123214103D01*
X115835010Y-123230903D01*
X115823133Y-123248347D01*
X115811938Y-123266434D01*
X115804928Y-123278921D01*
X115795262Y-123298278D01*
X115786613Y-123318389D01*
X115781412Y-123332215D01*
X115776664Y-123346376D01*
X115772368Y-123360872D01*
X115768524Y-123375703D01*
X115765132Y-123390868D01*
X115762192Y-123406368D01*
X115759705Y-123422204D01*
X115757670Y-123438374D01*
X115756087Y-123454879D01*
X115754957Y-123471719D01*
X115754278Y-123488893D01*
X115754052Y-123506403D01*
X115539766Y-123506403D01*
X115539766Y-122360416D01*
X115754052Y-122360416D01*
X115754109Y-122369189D01*
X115754561Y-122386486D01*
X115755465Y-122403447D01*
X115756822Y-122420074D01*
X115758631Y-122436366D01*
X115760892Y-122452323D01*
X115763606Y-122467945D01*
X115766771Y-122483232D01*
X115770389Y-122498184D01*
X115774459Y-122512801D01*
X115778981Y-122527084D01*
X115783956Y-122541031D01*
X115792266Y-122561325D01*
X115801593Y-122580865D01*
X115811938Y-122599651D01*
X115819325Y-122611823D01*
X115830975Y-122629528D01*
X115843308Y-122646569D01*
X115856323Y-122662947D01*
X115870021Y-122678662D01*
X115884401Y-122693713D01*
X115899464Y-122708101D01*
X115915210Y-122721826D01*
X115931639Y-122734887D01*
X115948750Y-122747285D01*
X115966543Y-122759020D01*
X115972638Y-122762789D01*
X115991239Y-122773709D01*
X116010316Y-122784049D01*
X116029870Y-122793810D01*
X116043171Y-122799995D01*
X116056683Y-122805923D01*
X116070408Y-122811593D01*
X116084344Y-122817006D01*
X116098492Y-122822161D01*
X116112852Y-122827058D01*
X116127423Y-122831697D01*
X116142207Y-122836079D01*
X116157202Y-122840204D01*
X116172409Y-122844071D01*
X116187827Y-122847680D01*
X116203437Y-122851052D01*
X116219123Y-122854206D01*
X116234887Y-122857143D01*
X116250728Y-122859862D01*
X116266646Y-122862363D01*
X116282641Y-122864647D01*
X116298714Y-122866714D01*
X116314864Y-122868563D01*
X116331092Y-122870194D01*
X116347396Y-122871608D01*
X116363778Y-122872805D01*
X116380237Y-122873784D01*
X116396774Y-122874545D01*
X116413388Y-122875089D01*
X116430079Y-122875415D01*
X116446847Y-122875524D01*
X116463572Y-122875415D01*
X116480226Y-122875089D01*
X116496809Y-122874545D01*
X116513319Y-122873784D01*
X116529758Y-122872805D01*
X116546126Y-122871608D01*
X116562422Y-122870194D01*
X116578647Y-122868563D01*
X116594800Y-122866714D01*
X116610881Y-122864647D01*
X116626891Y-122862363D01*
X116642829Y-122859862D01*
X116658696Y-122857143D01*
X116674491Y-122854206D01*
X116690215Y-122851052D01*
X116705867Y-122847680D01*
X116721411Y-122844067D01*
X116736721Y-122840187D01*
X116751797Y-122836041D01*
X116766637Y-122831629D01*
X116781243Y-122826950D01*
X116795614Y-122822006D01*
X116809751Y-122816795D01*
X116823653Y-122811318D01*
X116837320Y-122805575D01*
X116850752Y-122799566D01*
X116870461Y-122790053D01*
X116889641Y-122779941D01*
X116908294Y-122769231D01*
X116926418Y-122757921D01*
X116938179Y-122750083D01*
X116955273Y-122737783D01*
X116971710Y-122724834D01*
X116987490Y-122711233D01*
X117002613Y-122696983D01*
X117017079Y-122682082D01*
X117030889Y-122666530D01*
X117044042Y-122650328D01*
X117056537Y-122633476D01*
X117068376Y-122615973D01*
X117079558Y-122597820D01*
X117086568Y-122585343D01*
X117096234Y-122566038D01*
X117104883Y-122546025D01*
X117110084Y-122532289D01*
X117114832Y-122518238D01*
X117119128Y-122503873D01*
X117122972Y-122489193D01*
X117126364Y-122474197D01*
X117129304Y-122458887D01*
X117131791Y-122443263D01*
X117133826Y-122427323D01*
X117135409Y-122411068D01*
X117136539Y-122394499D01*
X117137218Y-122377615D01*
X117137444Y-122360416D01*
X117137387Y-122351754D01*
X117136935Y-122334670D01*
X117136030Y-122317903D01*
X117134674Y-122301453D01*
X117132865Y-122285322D01*
X117130604Y-122269508D01*
X117127890Y-122254012D01*
X117124725Y-122238834D01*
X117121107Y-122223973D01*
X117117037Y-122209430D01*
X117112514Y-122195205D01*
X117107540Y-122181297D01*
X117099230Y-122161032D01*
X117089903Y-122141481D01*
X117079558Y-122122645D01*
X117072176Y-122110474D01*
X117060557Y-122092769D01*
X117048280Y-122075728D01*
X117035346Y-122059350D01*
X117021756Y-122043635D01*
X117007508Y-122028584D01*
X116992604Y-122014196D01*
X116977043Y-122000471D01*
X116960825Y-121987410D01*
X116943950Y-121975011D01*
X116926418Y-121963277D01*
X116908294Y-121952219D01*
X116889641Y-121941716D01*
X116870461Y-121931766D01*
X116850752Y-121922370D01*
X116837320Y-121916414D01*
X116823653Y-121910703D01*
X116809751Y-121905239D01*
X116795614Y-121900022D01*
X116781243Y-121895050D01*
X116766637Y-121890324D01*
X116751797Y-121885845D01*
X116736721Y-121881612D01*
X116721411Y-121877625D01*
X116705867Y-121873884D01*
X116690215Y-121870379D01*
X116674491Y-121867100D01*
X116658696Y-121864048D01*
X116642829Y-121861221D01*
X116626891Y-121858621D01*
X116610881Y-121856247D01*
X116594800Y-121854099D01*
X116578647Y-121852177D01*
X116562422Y-121850481D01*
X116546126Y-121849011D01*
X116529758Y-121847768D01*
X116513319Y-121846750D01*
X116496809Y-121845959D01*
X116480226Y-121845393D01*
X116463572Y-121845054D01*
X116446847Y-121844941D01*
X116430079Y-121845048D01*
X116413388Y-121845370D01*
X116396774Y-121845907D01*
X116380237Y-121846658D01*
X116363778Y-121847624D01*
X116347396Y-121848805D01*
X116331092Y-121850200D01*
X116314864Y-121851810D01*
X116298714Y-121853635D01*
X116282641Y-121855674D01*
X116266646Y-121857928D01*
X116250728Y-121860397D01*
X116234887Y-121863080D01*
X116219123Y-121865978D01*
X116203437Y-121869091D01*
X116187827Y-121872418D01*
X116172409Y-121875940D01*
X116157202Y-121879728D01*
X116142207Y-121883783D01*
X116127423Y-121888103D01*
X116112852Y-121892690D01*
X116098492Y-121897543D01*
X116084344Y-121902662D01*
X116070408Y-121908047D01*
X116056683Y-121913699D01*
X116043171Y-121919616D01*
X116023299Y-121928992D01*
X116003904Y-121938966D01*
X115984985Y-121949540D01*
X115966543Y-121960712D01*
X115954605Y-121968549D01*
X115937267Y-121980841D01*
X115920611Y-121993777D01*
X115904637Y-122007356D01*
X115889347Y-122021580D01*
X115874738Y-122036448D01*
X115860813Y-122051960D01*
X115847570Y-122068116D01*
X115835010Y-122084915D01*
X115823133Y-122102359D01*
X115811938Y-122120447D01*
X115804928Y-122132933D01*
X115795262Y-122152291D01*
X115786613Y-122172402D01*
X115781412Y-122186228D01*
X115776664Y-122200389D01*
X115772368Y-122214885D01*
X115768524Y-122229715D01*
X115765132Y-122244881D01*
X115762192Y-122260381D01*
X115759705Y-122276216D01*
X115757670Y-122292386D01*
X115756087Y-122308891D01*
X115754957Y-122325731D01*
X115754278Y-122342906D01*
X115754052Y-122360416D01*
X115539766Y-122360416D01*
X115539766Y-120783584D01*
X115777500Y-120783584D01*
X115777500Y-120996808D01*
X115777500Y-121212230D01*
X115777859Y-121240533D01*
X115778936Y-121268015D01*
X115780732Y-121294675D01*
X115783247Y-121320514D01*
X115786480Y-121345531D01*
X115790431Y-121369727D01*
X115795101Y-121393101D01*
X115800489Y-121415654D01*
X115806595Y-121437385D01*
X115813420Y-121458295D01*
X115820964Y-121478384D01*
X115829226Y-121497651D01*
X115838206Y-121516096D01*
X115847904Y-121533720D01*
X115858321Y-121550523D01*
X115869457Y-121566504D01*
X115881348Y-121581632D01*
X115893940Y-121595785D01*
X115907234Y-121608961D01*
X115921229Y-121621161D01*
X115935925Y-121632385D01*
X115951322Y-121642634D01*
X115967421Y-121651906D01*
X115984221Y-121660202D01*
X116001722Y-121667522D01*
X116019924Y-121673866D01*
X116038827Y-121679234D01*
X116058432Y-121683626D01*
X116078738Y-121687042D01*
X116099745Y-121689482D01*
X116121454Y-121690946D01*
X116143864Y-121691434D01*
X116160114Y-121691187D01*
X116175892Y-121690444D01*
X116191198Y-121689206D01*
X116206031Y-121687473D01*
X116227396Y-121683945D01*
X116247698Y-121679303D01*
X116266937Y-121673547D01*
X116285114Y-121666676D01*
X116302229Y-121658692D01*
X116318280Y-121649593D01*
X116333269Y-121639380D01*
X116347196Y-121628053D01*
X116356047Y-121619875D01*
X116368858Y-121606646D01*
X116381108Y-121592264D01*
X116392797Y-121576730D01*
X116403927Y-121560043D01*
X116414496Y-121542203D01*
X116424505Y-121523210D01*
X116430866Y-121509908D01*
X116436978Y-121496094D01*
X116442841Y-121481767D01*
X116448456Y-121466928D01*
X116453821Y-121451576D01*
X116458937Y-121435712D01*
X116463746Y-121448648D01*
X116471645Y-121467274D01*
X116480369Y-121484965D01*
X116489918Y-121501723D01*
X116500290Y-121517547D01*
X116511487Y-121532438D01*
X116523509Y-121546394D01*
X116536354Y-121559417D01*
X116550024Y-121571506D01*
X116564519Y-121582661D01*
X116579837Y-121592882D01*
X116590437Y-121599182D01*
X116606590Y-121607870D01*
X116623045Y-121615643D01*
X116639803Y-121622501D01*
X116656864Y-121628446D01*
X116674227Y-121633475D01*
X116691893Y-121637590D01*
X116709862Y-121640791D01*
X116728133Y-121643077D01*
X116746707Y-121644449D01*
X116765584Y-121644906D01*
X116778982Y-121644749D01*
X116798489Y-121643922D01*
X116817287Y-121642387D01*
X116835377Y-121640144D01*
X116852759Y-121637192D01*
X116869432Y-121633532D01*
X116885397Y-121629164D01*
X116900653Y-121624087D01*
X116915201Y-121618302D01*
X116929040Y-121611808D01*
X116942172Y-121604606D01*
X116958732Y-121594239D01*
X116974343Y-121583105D01*
X116989003Y-121571204D01*
X117002713Y-121558536D01*
X117015473Y-121545101D01*
X117027283Y-121530898D01*
X117038142Y-121515929D01*
X117048051Y-121500192D01*
X117057198Y-121483809D01*
X117065590Y-121466899D01*
X117073227Y-121449462D01*
X117080108Y-121431499D01*
X117086233Y-121413009D01*
X117090331Y-121398796D01*
X117094004Y-121384287D01*
X117097252Y-121369481D01*
X117100075Y-121354379D01*
X117101760Y-121344200D01*
X117104085Y-121328882D01*
X117106165Y-121313507D01*
X117108001Y-121298073D01*
X117109591Y-121282582D01*
X117110937Y-121267033D01*
X117112039Y-121251425D01*
X117112895Y-121235760D01*
X117113507Y-121220037D01*
X117113874Y-121204255D01*
X117113996Y-121188416D01*
X117113996Y-120783584D01*
X115777500Y-120783584D01*
X115539766Y-120783584D01*
X115539766Y-120569298D01*
X117351730Y-120569298D01*
X117351730Y-125343683D01*
G37*
G36*
X146983759Y-118690433D02*
G01*
X147003483Y-118692072D01*
X147022620Y-118694805D01*
X147041170Y-118698631D01*
X147059133Y-118703551D01*
X147076509Y-118709563D01*
X147093297Y-118716669D01*
X147109499Y-118724868D01*
X147125113Y-118734160D01*
X147140140Y-118744545D01*
X147154580Y-118756023D01*
X147168433Y-118768595D01*
X147181699Y-118782260D01*
X147194377Y-118797017D01*
X147206469Y-118812869D01*
X147217973Y-118829813D01*
X147228884Y-118847738D01*
X147239091Y-118866637D01*
X147248593Y-118886509D01*
X147257392Y-118907354D01*
X147265487Y-118929172D01*
X147272878Y-118951963D01*
X147279566Y-118975728D01*
X147285549Y-119000465D01*
X147290828Y-119026176D01*
X147295404Y-119052860D01*
X147299275Y-119080517D01*
X147302443Y-119109147D01*
X147304907Y-119138751D01*
X147306666Y-119169327D01*
X147307722Y-119200877D01*
X147308074Y-119233400D01*
X147307722Y-119265533D01*
X147306666Y-119296746D01*
X147304907Y-119327037D01*
X147302443Y-119356406D01*
X147299275Y-119384855D01*
X147295404Y-119412382D01*
X147290828Y-119438988D01*
X147285549Y-119464673D01*
X147279566Y-119489437D01*
X147272878Y-119513279D01*
X147265487Y-119536200D01*
X147257392Y-119558200D01*
X147248593Y-119579278D01*
X147239091Y-119599436D01*
X147228884Y-119618672D01*
X147217973Y-119636987D01*
X147206469Y-119654232D01*
X147194377Y-119670366D01*
X147181699Y-119685386D01*
X147168433Y-119699294D01*
X147154580Y-119712090D01*
X147140140Y-119723772D01*
X147125113Y-119734343D01*
X147109499Y-119743800D01*
X147093297Y-119752145D01*
X147076509Y-119759377D01*
X147059133Y-119765497D01*
X147041170Y-119770503D01*
X147022620Y-119774398D01*
X147003483Y-119777179D01*
X146983759Y-119778848D01*
X146963448Y-119779405D01*
X146710168Y-119779405D01*
X146710168Y-118689886D01*
X146963448Y-118689886D01*
X146983759Y-118690433D01*
G37*
G36*
X148861343Y-120234851D02*
G01*
X146225657Y-120234851D01*
X146225657Y-118477297D01*
X146468514Y-118477297D01*
X146468514Y-118689886D01*
X146468514Y-119991994D01*
X146963448Y-119991994D01*
X146982989Y-119991753D01*
X147002166Y-119991033D01*
X147020981Y-119989833D01*
X147039432Y-119988153D01*
X147057519Y-119985992D01*
X147075244Y-119983352D01*
X147092605Y-119980231D01*
X147109602Y-119976631D01*
X147126237Y-119972550D01*
X147142508Y-119967989D01*
X147166234Y-119960248D01*
X147189142Y-119951426D01*
X147211232Y-119941524D01*
X147232505Y-119930542D01*
X147246306Y-119922695D01*
X147266406Y-119910304D01*
X147285782Y-119897169D01*
X147304437Y-119883290D01*
X147322368Y-119868666D01*
X147339577Y-119853297D01*
X147356064Y-119837184D01*
X147371828Y-119820327D01*
X147386869Y-119802725D01*
X147401188Y-119784378D01*
X147414784Y-119765287D01*
X147423456Y-119752130D01*
X147435899Y-119731908D01*
X147447664Y-119711102D01*
X147458749Y-119689712D01*
X147469156Y-119667738D01*
X147478884Y-119645180D01*
X147487933Y-119622039D01*
X147493588Y-119606287D01*
X147498942Y-119590275D01*
X147503995Y-119574004D01*
X147508745Y-119557473D01*
X147513194Y-119540683D01*
X147517342Y-119523633D01*
X147521263Y-119506397D01*
X147524932Y-119489047D01*
X147528348Y-119471584D01*
X147531511Y-119454007D01*
X147534420Y-119436317D01*
X147537077Y-119418513D01*
X147539481Y-119400596D01*
X147541631Y-119382565D01*
X147543529Y-119364420D01*
X147545174Y-119346162D01*
X147546565Y-119327791D01*
X147547704Y-119309306D01*
X147548590Y-119290707D01*
X147549222Y-119271995D01*
X147549602Y-119253169D01*
X147549728Y-119234230D01*
X147549598Y-119215244D01*
X147549209Y-119196381D01*
X147548560Y-119177641D01*
X147547652Y-119159025D01*
X147546554Y-119141638D01*
X147710000Y-119141638D01*
X147728309Y-119141391D01*
X147746487Y-119140651D01*
X147764536Y-119139419D01*
X147782455Y-119137693D01*
X147800244Y-119135474D01*
X147817904Y-119132762D01*
X147835433Y-119129558D01*
X147852833Y-119125860D01*
X147857180Y-119124834D01*
X147874308Y-119120465D01*
X147891020Y-119115667D01*
X147907317Y-119110441D01*
X147923199Y-119104787D01*
X147942468Y-119097117D01*
X147961087Y-119088779D01*
X147979058Y-119079771D01*
X147986104Y-119075976D01*
X148003150Y-119065976D01*
X148019386Y-119055247D01*
X148034810Y-119043788D01*
X148049424Y-119031600D01*
X148063226Y-119018681D01*
X148076218Y-119005033D01*
X148081158Y-118999377D01*
X148092686Y-118984798D01*
X148103038Y-118969590D01*
X148112214Y-118953754D01*
X148120214Y-118937290D01*
X148127039Y-118920197D01*
X148132687Y-118902475D01*
X148132687Y-119779405D01*
X147887711Y-119779405D01*
X147887711Y-119991994D01*
X148618486Y-119991994D01*
X148618486Y-119779405D01*
X148374341Y-119779405D01*
X148374341Y-118477297D01*
X148132687Y-118477297D01*
X148132651Y-118484170D01*
X148132110Y-118504422D01*
X148130919Y-118524127D01*
X148129078Y-118543285D01*
X148126588Y-118561895D01*
X148123448Y-118579958D01*
X148119659Y-118597474D01*
X148115220Y-118614442D01*
X148110132Y-118630863D01*
X148104394Y-118646736D01*
X148095733Y-118667049D01*
X148086235Y-118686454D01*
X148076010Y-118705015D01*
X148065059Y-118722733D01*
X148053381Y-118739608D01*
X148040977Y-118755639D01*
X148027846Y-118770827D01*
X148013988Y-118785171D01*
X147999404Y-118798672D01*
X147984307Y-118811336D01*
X147968704Y-118823169D01*
X147952595Y-118834172D01*
X147935980Y-118844345D01*
X147918859Y-118853687D01*
X147901232Y-118862199D01*
X147883099Y-118869881D01*
X147864459Y-118876732D01*
X147845606Y-118882765D01*
X147826623Y-118887994D01*
X147807510Y-118892419D01*
X147788268Y-118896039D01*
X147768896Y-118898855D01*
X147749394Y-118900866D01*
X147729762Y-118902073D01*
X147710000Y-118902475D01*
X147710000Y-119141638D01*
X147546554Y-119141638D01*
X147546484Y-119140531D01*
X147545057Y-119122162D01*
X147543370Y-119103915D01*
X147541424Y-119085791D01*
X147539218Y-119067791D01*
X147536753Y-119049914D01*
X147534028Y-119032161D01*
X147531044Y-119014531D01*
X147527800Y-118997024D01*
X147524296Y-118979640D01*
X147520533Y-118962379D01*
X147516511Y-118945242D01*
X147514398Y-118936711D01*
X147509951Y-118919846D01*
X147505208Y-118903244D01*
X147500171Y-118886905D01*
X147494838Y-118870828D01*
X147489210Y-118855015D01*
X147480214Y-118831787D01*
X147470554Y-118809150D01*
X147460230Y-118787104D01*
X147449242Y-118765650D01*
X147437590Y-118744787D01*
X147425273Y-118724515D01*
X147412293Y-118704834D01*
X147403309Y-118692072D01*
X147389231Y-118673539D01*
X147374430Y-118655735D01*
X147358907Y-118638661D01*
X147342662Y-118622317D01*
X147325694Y-118606702D01*
X147308003Y-118591818D01*
X147289590Y-118577663D01*
X147270454Y-118564239D01*
X147250595Y-118551544D01*
X147230014Y-118539579D01*
X147208763Y-118528449D01*
X147186738Y-118518413D01*
X147163939Y-118509472D01*
X147140367Y-118501626D01*
X147124223Y-118497003D01*
X147107734Y-118492868D01*
X147090902Y-118489218D01*
X147073726Y-118486055D01*
X147056205Y-118483379D01*
X147038342Y-118481190D01*
X147020134Y-118479487D01*
X147001582Y-118478270D01*
X146982687Y-118477540D01*
X146963448Y-118477297D01*
X146468514Y-118477297D01*
X146225657Y-118477297D01*
X146225657Y-118234440D01*
X148861343Y-118234440D01*
X148861343Y-120234851D01*
G37*
G36*
X148585318Y-116522520D02*
G01*
X148587675Y-116540139D01*
X148589784Y-116557846D01*
X148591646Y-116575640D01*
X148593259Y-116593522D01*
X148594623Y-116611491D01*
X148595740Y-116629548D01*
X148596609Y-116647692D01*
X148597229Y-116665924D01*
X148597601Y-116684244D01*
X148597725Y-116702651D01*
X148597664Y-116715473D01*
X148597340Y-116734711D01*
X148596739Y-116753956D01*
X148595861Y-116773209D01*
X148594705Y-116792469D01*
X148593272Y-116811736D01*
X148591562Y-116831010D01*
X148589574Y-116850292D01*
X148587309Y-116869581D01*
X148584767Y-116888878D01*
X148581947Y-116908182D01*
X148579887Y-116920969D01*
X148576469Y-116939834D01*
X148572657Y-116958319D01*
X148568450Y-116976424D01*
X148563850Y-116994150D01*
X148558855Y-117011497D01*
X148553466Y-117028464D01*
X148547683Y-117045051D01*
X148541506Y-117061259D01*
X148534935Y-117077087D01*
X148527970Y-117092536D01*
X148518082Y-117112298D01*
X148507313Y-117131099D01*
X148495661Y-117148940D01*
X148483127Y-117165821D01*
X148469710Y-117181742D01*
X148455411Y-117196703D01*
X148440230Y-117210703D01*
X148424166Y-117223743D01*
X148420004Y-117226834D01*
X148402633Y-117238217D01*
X148384108Y-117248030D01*
X148364427Y-117256272D01*
X148343592Y-117262945D01*
X148327208Y-117266919D01*
X148310174Y-117270010D01*
X148292490Y-117272218D01*
X148274157Y-117273543D01*
X148255175Y-117273984D01*
X148236741Y-117273583D01*
X148218964Y-117272378D01*
X148201843Y-117270371D01*
X148185380Y-117267561D01*
X148164451Y-117262566D01*
X148144689Y-117256143D01*
X148126095Y-117248293D01*
X148108669Y-117239015D01*
X148092411Y-117228311D01*
X148077191Y-117216419D01*
X148062672Y-117203580D01*
X148048853Y-117189793D01*
X148035735Y-117175060D01*
X148023317Y-117159379D01*
X148011600Y-117142751D01*
X148000584Y-117125176D01*
X147990269Y-117106653D01*
X148583608Y-116510823D01*
X148585318Y-116522520D01*
G37*
G36*
X148273701Y-116131749D02*
G01*
X148291600Y-116133041D01*
X148308871Y-116135194D01*
X148325514Y-116138208D01*
X148346729Y-116143567D01*
X148366828Y-116150457D01*
X148385811Y-116158878D01*
X148403678Y-116168830D01*
X148420429Y-116180314D01*
X148436324Y-116193036D01*
X148451415Y-116206705D01*
X148465701Y-116221322D01*
X148479182Y-116236886D01*
X148491859Y-116253397D01*
X148503732Y-116270856D01*
X148514800Y-116289261D01*
X148525063Y-116308614D01*
X147927157Y-116908182D01*
X147925447Y-116895595D01*
X147923090Y-116876619D01*
X147920980Y-116857526D01*
X147919119Y-116838316D01*
X147917506Y-116818989D01*
X147916141Y-116799545D01*
X147915025Y-116779985D01*
X147914156Y-116760307D01*
X147913536Y-116740514D01*
X147913163Y-116720603D01*
X147913039Y-116700575D01*
X147913382Y-116667507D01*
X147914408Y-116635361D01*
X147916119Y-116604136D01*
X147918515Y-116573831D01*
X147921595Y-116544449D01*
X147925359Y-116515987D01*
X147929808Y-116488447D01*
X147934942Y-116461828D01*
X147940760Y-116436130D01*
X147947262Y-116411354D01*
X147954449Y-116387498D01*
X147962320Y-116364564D01*
X147970876Y-116342551D01*
X147980116Y-116321460D01*
X147990040Y-116301290D01*
X148000649Y-116282041D01*
X148011910Y-116263789D01*
X148023791Y-116246715D01*
X148036291Y-116230819D01*
X148049411Y-116216100D01*
X148063150Y-116202558D01*
X148077509Y-116190194D01*
X148092488Y-116179008D01*
X148108086Y-116168999D01*
X148124303Y-116160168D01*
X148141140Y-116152514D01*
X148158597Y-116146037D01*
X148176674Y-116140739D01*
X148195369Y-116136617D01*
X148214685Y-116133673D01*
X148234620Y-116131907D01*
X148255175Y-116131318D01*
X148273701Y-116131749D01*
G37*
G36*
X146983759Y-116158439D02*
G01*
X147003483Y-116160078D01*
X147022620Y-116162811D01*
X147041170Y-116166637D01*
X147059133Y-116171557D01*
X147076509Y-116177569D01*
X147093297Y-116184675D01*
X147109499Y-116192874D01*
X147125113Y-116202166D01*
X147140140Y-116212551D01*
X147154580Y-116224029D01*
X147168433Y-116236601D01*
X147181699Y-116250266D01*
X147194377Y-116265023D01*
X147206469Y-116280875D01*
X147217973Y-116297819D01*
X147228884Y-116315744D01*
X147239091Y-116334643D01*
X147248593Y-116354515D01*
X147257392Y-116375360D01*
X147265487Y-116397178D01*
X147272878Y-116419969D01*
X147279566Y-116443734D01*
X147285549Y-116468471D01*
X147290828Y-116494182D01*
X147295404Y-116520866D01*
X147299275Y-116548523D01*
X147302443Y-116577153D01*
X147304907Y-116606757D01*
X147306666Y-116637333D01*
X147307722Y-116668883D01*
X147308074Y-116701406D01*
X147307722Y-116733539D01*
X147306666Y-116764752D01*
X147304907Y-116795043D01*
X147302443Y-116824412D01*
X147299275Y-116852861D01*
X147295404Y-116880388D01*
X147290828Y-116906994D01*
X147285549Y-116932679D01*
X147279566Y-116957443D01*
X147272878Y-116981285D01*
X147265487Y-117004206D01*
X147257392Y-117026206D01*
X147248593Y-117047284D01*
X147239091Y-117067442D01*
X147228884Y-117086678D01*
X147217973Y-117104993D01*
X147206469Y-117122238D01*
X147194377Y-117138372D01*
X147181699Y-117153392D01*
X147168433Y-117167300D01*
X147154580Y-117180096D01*
X147140140Y-117191778D01*
X147125113Y-117202349D01*
X147109499Y-117211806D01*
X147093297Y-117220151D01*
X147076509Y-117227383D01*
X147059133Y-117233503D01*
X147041170Y-117238509D01*
X147022620Y-117242404D01*
X147003483Y-117245185D01*
X146983759Y-117246854D01*
X146963448Y-117247411D01*
X146710168Y-117247411D01*
X146710168Y-116157892D01*
X146963448Y-116157892D01*
X146983759Y-116158439D01*
G37*
G36*
X149082236Y-117729430D02*
G01*
X146225657Y-117729430D01*
X146225657Y-115945303D01*
X146468514Y-115945303D01*
X146468514Y-116157892D01*
X146468514Y-117460000D01*
X146963448Y-117460000D01*
X146982989Y-117459759D01*
X147002166Y-117459039D01*
X147020981Y-117457839D01*
X147039432Y-117456159D01*
X147057519Y-117453998D01*
X147075244Y-117451358D01*
X147092605Y-117448237D01*
X147109602Y-117444637D01*
X147126237Y-117440556D01*
X147142508Y-117435995D01*
X147166234Y-117428254D01*
X147189142Y-117419432D01*
X147211232Y-117409530D01*
X147232505Y-117398548D01*
X147246306Y-117390701D01*
X147266406Y-117378310D01*
X147285782Y-117365175D01*
X147304437Y-117351296D01*
X147322368Y-117336672D01*
X147339577Y-117321303D01*
X147356064Y-117305190D01*
X147371828Y-117288333D01*
X147386869Y-117270731D01*
X147401188Y-117252384D01*
X147414784Y-117233293D01*
X147423456Y-117220136D01*
X147435899Y-117199914D01*
X147447664Y-117179108D01*
X147458749Y-117157718D01*
X147469156Y-117135744D01*
X147478884Y-117113186D01*
X147487933Y-117090045D01*
X147493588Y-117074293D01*
X147498942Y-117058281D01*
X147503995Y-117042010D01*
X147508745Y-117025479D01*
X147513194Y-117008689D01*
X147517342Y-116991639D01*
X147521263Y-116974403D01*
X147524932Y-116957053D01*
X147528348Y-116939590D01*
X147531511Y-116922013D01*
X147534420Y-116904323D01*
X147537077Y-116886519D01*
X147539481Y-116868602D01*
X147541631Y-116850571D01*
X147543529Y-116832426D01*
X147545174Y-116814168D01*
X147546565Y-116795797D01*
X147547704Y-116777312D01*
X147548590Y-116758713D01*
X147549222Y-116740001D01*
X147549602Y-116721175D01*
X147549728Y-116702236D01*
X147549722Y-116701406D01*
X147671385Y-116701406D01*
X147671507Y-116720410D01*
X147671872Y-116739326D01*
X147672480Y-116758155D01*
X147673332Y-116776897D01*
X147674427Y-116795550D01*
X147675765Y-116814116D01*
X147677346Y-116832595D01*
X147679171Y-116850986D01*
X147681239Y-116869289D01*
X147683550Y-116887505D01*
X147686104Y-116905634D01*
X147688902Y-116923674D01*
X147691943Y-116941627D01*
X147695228Y-116959493D01*
X147698755Y-116977271D01*
X147702526Y-116994961D01*
X147706518Y-117012436D01*
X147710811Y-117029670D01*
X147715406Y-117046665D01*
X147720303Y-117063419D01*
X147725501Y-117079934D01*
X147731001Y-117096208D01*
X147734780Y-117106653D01*
X147736803Y-117112243D01*
X147742906Y-117128037D01*
X147749311Y-117143591D01*
X147756018Y-117158905D01*
X147766643Y-117181427D01*
X147777948Y-117203408D01*
X147789931Y-117224849D01*
X147802593Y-117245750D01*
X147811474Y-117259280D01*
X147825405Y-117278930D01*
X147840066Y-117297807D01*
X147855456Y-117315910D01*
X147871576Y-117333240D01*
X147888427Y-117349795D01*
X147906007Y-117365578D01*
X147924317Y-117380586D01*
X147943356Y-117394821D01*
X147963126Y-117408282D01*
X147983626Y-117420969D01*
X147997777Y-117428914D01*
X148019715Y-117439869D01*
X148042508Y-117449671D01*
X148058177Y-117455565D01*
X148074226Y-117460947D01*
X148090655Y-117465816D01*
X148107463Y-117470172D01*
X148124650Y-117474016D01*
X148142217Y-117477348D01*
X148160164Y-117480167D01*
X148178490Y-117482473D01*
X148197196Y-117484267D01*
X148216281Y-117485548D01*
X148235746Y-117486317D01*
X148255590Y-117486573D01*
X148265534Y-117486509D01*
X148285136Y-117485997D01*
X148304359Y-117484971D01*
X148323203Y-117483434D01*
X148341667Y-117481384D01*
X148359751Y-117478821D01*
X148377456Y-117475746D01*
X148394782Y-117472158D01*
X148411727Y-117468058D01*
X148428294Y-117463445D01*
X148444481Y-117458320D01*
X148460288Y-117452682D01*
X148483287Y-117443264D01*
X148505433Y-117432694D01*
X148526724Y-117420969D01*
X148540518Y-117412597D01*
X148560584Y-117399394D01*
X148579897Y-117385417D01*
X148598459Y-117370666D01*
X148616269Y-117355142D01*
X148633327Y-117338844D01*
X148649633Y-117321773D01*
X148665188Y-117303927D01*
X148679991Y-117285308D01*
X148694042Y-117265916D01*
X148707342Y-117245750D01*
X148711613Y-117238843D01*
X148723989Y-117217762D01*
X148735708Y-117196141D01*
X148746771Y-117173979D01*
X148753780Y-117158905D01*
X148760498Y-117143591D01*
X148766925Y-117128037D01*
X148773059Y-117112243D01*
X148778901Y-117096208D01*
X148784451Y-117079934D01*
X148789709Y-117063419D01*
X148794676Y-117046665D01*
X148799350Y-117029670D01*
X148803733Y-117012436D01*
X148807823Y-116994961D01*
X148811644Y-116977271D01*
X148815219Y-116959493D01*
X148818547Y-116941627D01*
X148821629Y-116923674D01*
X148824464Y-116905634D01*
X148827053Y-116887505D01*
X148829395Y-116869289D01*
X148831490Y-116850986D01*
X148833339Y-116832595D01*
X148834942Y-116814116D01*
X148836298Y-116795550D01*
X148837407Y-116776897D01*
X148838270Y-116758155D01*
X148838886Y-116739326D01*
X148839256Y-116720410D01*
X148839379Y-116701406D01*
X148839256Y-116682450D01*
X148838886Y-116663576D01*
X148838270Y-116644783D01*
X148837407Y-116626070D01*
X148836298Y-116607439D01*
X148834942Y-116588889D01*
X148833339Y-116570421D01*
X148831490Y-116552033D01*
X148829395Y-116533726D01*
X148827053Y-116515501D01*
X148824464Y-116497356D01*
X148821629Y-116479293D01*
X148818547Y-116461310D01*
X148815219Y-116443409D01*
X148811644Y-116425589D01*
X148807823Y-116407850D01*
X148803728Y-116390233D01*
X148799331Y-116372881D01*
X148794632Y-116355796D01*
X148789632Y-116338977D01*
X148784329Y-116322423D01*
X148778726Y-116306136D01*
X148772820Y-116290115D01*
X148766613Y-116274359D01*
X148760104Y-116258870D01*
X148753294Y-116243646D01*
X148742513Y-116221310D01*
X148731052Y-116199572D01*
X148718914Y-116178433D01*
X148706096Y-116157892D01*
X148697213Y-116144563D01*
X148683273Y-116125190D01*
X148668597Y-116106561D01*
X148653183Y-116088677D01*
X148637033Y-116071537D01*
X148620145Y-116055142D01*
X148602520Y-116039491D01*
X148584158Y-116024585D01*
X148565058Y-116010423D01*
X148545222Y-115997006D01*
X148524648Y-115984333D01*
X148510508Y-115976389D01*
X148488629Y-115965434D01*
X148465947Y-115955631D01*
X148450380Y-115949737D01*
X148434456Y-115944356D01*
X148418175Y-115939487D01*
X148401537Y-115935130D01*
X148384543Y-115931286D01*
X148367191Y-115927955D01*
X148349483Y-115925136D01*
X148331418Y-115922830D01*
X148312996Y-115921036D01*
X148294218Y-115919754D01*
X148275082Y-115918986D01*
X148255590Y-115918729D01*
X148245774Y-115918794D01*
X148226411Y-115919306D01*
X148207409Y-115920331D01*
X148188766Y-115921869D01*
X148170484Y-115923919D01*
X148152562Y-115926481D01*
X148134999Y-115929557D01*
X148117797Y-115933144D01*
X148100955Y-115937245D01*
X148084473Y-115941857D01*
X148068351Y-115946983D01*
X148052589Y-115952620D01*
X148029622Y-115962038D01*
X148007464Y-115972609D01*
X147986117Y-115984333D01*
X147972322Y-115992699D01*
X147952257Y-116005868D01*
X147932944Y-116019782D01*
X147914382Y-116034440D01*
X147896572Y-116049843D01*
X147879514Y-116065990D01*
X147863207Y-116082881D01*
X147847653Y-116100517D01*
X147832850Y-116118898D01*
X147818799Y-116138023D01*
X147805499Y-116157892D01*
X147792967Y-116178433D01*
X147781063Y-116199572D01*
X147769787Y-116221310D01*
X147759138Y-116243646D01*
X147752388Y-116258870D01*
X147745916Y-116274359D01*
X147739724Y-116290115D01*
X147733810Y-116306136D01*
X147728176Y-116322423D01*
X147722820Y-116338977D01*
X147717743Y-116355796D01*
X147712946Y-116372881D01*
X147708427Y-116390233D01*
X147704187Y-116407850D01*
X147700215Y-116425589D01*
X147696499Y-116443409D01*
X147693040Y-116461310D01*
X147689836Y-116479293D01*
X147686889Y-116497356D01*
X147684199Y-116515501D01*
X147681764Y-116533726D01*
X147679586Y-116552033D01*
X147677664Y-116570421D01*
X147675998Y-116588889D01*
X147674589Y-116607439D01*
X147673436Y-116626070D01*
X147672539Y-116644783D01*
X147671898Y-116663576D01*
X147671514Y-116682450D01*
X147671391Y-116700575D01*
X147671385Y-116701406D01*
X147549722Y-116701406D01*
X147549598Y-116683250D01*
X147549209Y-116664387D01*
X147548560Y-116645647D01*
X147547652Y-116627031D01*
X147546484Y-116608537D01*
X147545057Y-116590168D01*
X147543370Y-116571921D01*
X147541424Y-116553797D01*
X147539218Y-116535797D01*
X147536753Y-116517920D01*
X147534028Y-116500167D01*
X147531044Y-116482537D01*
X147527800Y-116465030D01*
X147524296Y-116447646D01*
X147520533Y-116430385D01*
X147516511Y-116413248D01*
X147514398Y-116404717D01*
X147509951Y-116387852D01*
X147505208Y-116371250D01*
X147500171Y-116354911D01*
X147494838Y-116338834D01*
X147489210Y-116323021D01*
X147480214Y-116299793D01*
X147470554Y-116277156D01*
X147460230Y-116255110D01*
X147449242Y-116233656D01*
X147437590Y-116212793D01*
X147425273Y-116192521D01*
X147412293Y-116172840D01*
X147403309Y-116160078D01*
X147389231Y-116141545D01*
X147374430Y-116123741D01*
X147358907Y-116106667D01*
X147342662Y-116090323D01*
X147325694Y-116074708D01*
X147308003Y-116059824D01*
X147289590Y-116045669D01*
X147270454Y-116032245D01*
X147250595Y-116019550D01*
X147230014Y-116007585D01*
X147208763Y-115996455D01*
X147186738Y-115986419D01*
X147163939Y-115977478D01*
X147140367Y-115969632D01*
X147124223Y-115965009D01*
X147107734Y-115960874D01*
X147090902Y-115957224D01*
X147073726Y-115954061D01*
X147056205Y-115951385D01*
X147038342Y-115949196D01*
X147020134Y-115947493D01*
X147001582Y-115946276D01*
X146982687Y-115945546D01*
X146963448Y-115945303D01*
X146468514Y-115945303D01*
X146225657Y-115945303D01*
X146225657Y-115675872D01*
X149082236Y-115675872D01*
X149082236Y-117729430D01*
G37*
G36*
X146927935Y-113192374D02*
G01*
X146662687Y-113192374D01*
X146796044Y-112563742D01*
X146927935Y-113192374D01*
G37*
G36*
X147732153Y-112475433D02*
G01*
X147746076Y-112477072D01*
X147759585Y-112479805D01*
X147772679Y-112483631D01*
X147785359Y-112488551D01*
X147797624Y-112494563D01*
X147809475Y-112501669D01*
X147820911Y-112509868D01*
X147831933Y-112519160D01*
X147842540Y-112529545D01*
X147852733Y-112541023D01*
X147862512Y-112553595D01*
X147871876Y-112567260D01*
X147880825Y-112582017D01*
X147889360Y-112597869D01*
X147897481Y-112614813D01*
X147905183Y-112632738D01*
X147912388Y-112651637D01*
X147919095Y-112671509D01*
X147925306Y-112692354D01*
X147931021Y-112714172D01*
X147936238Y-112736963D01*
X147940958Y-112760728D01*
X147945182Y-112785465D01*
X147948908Y-112811176D01*
X147952138Y-112837860D01*
X147954871Y-112865517D01*
X147957107Y-112894147D01*
X147958846Y-112923751D01*
X147960088Y-112954327D01*
X147960833Y-112985877D01*
X147961082Y-113018400D01*
X147960833Y-113050533D01*
X147960088Y-113081746D01*
X147958846Y-113112037D01*
X147957107Y-113141406D01*
X147954871Y-113169855D01*
X147952138Y-113197382D01*
X147948908Y-113223988D01*
X147945182Y-113249673D01*
X147940958Y-113274437D01*
X147936238Y-113298279D01*
X147931021Y-113321200D01*
X147925306Y-113343200D01*
X147919095Y-113364278D01*
X147912388Y-113384436D01*
X147905183Y-113403672D01*
X147897481Y-113421987D01*
X147889360Y-113439232D01*
X147880825Y-113455366D01*
X147871876Y-113470386D01*
X147862512Y-113484294D01*
X147852733Y-113497090D01*
X147842540Y-113508772D01*
X147831933Y-113519343D01*
X147820911Y-113528800D01*
X147809475Y-113537145D01*
X147797624Y-113544377D01*
X147785359Y-113550497D01*
X147772679Y-113555503D01*
X147759585Y-113559398D01*
X147746076Y-113562179D01*
X147732153Y-113563848D01*
X147717816Y-113564405D01*
X147539030Y-113564405D01*
X147539030Y-112474886D01*
X147717816Y-112474886D01*
X147732153Y-112475433D01*
G37*
G36*
X149272550Y-114046424D02*
G01*
X146119704Y-114046424D01*
X146119704Y-113776994D01*
X146362561Y-113776994D01*
X146541347Y-113776994D01*
X146617258Y-113404963D01*
X146973364Y-113404963D01*
X147051033Y-113776994D01*
X147229819Y-113776994D01*
X146894229Y-112262297D01*
X147368451Y-112262297D01*
X147368451Y-112474886D01*
X147368451Y-113776994D01*
X147717816Y-113776994D01*
X147731610Y-113776753D01*
X147745147Y-113776033D01*
X147758428Y-113774833D01*
X147771452Y-113773153D01*
X147784220Y-113770992D01*
X147796731Y-113768352D01*
X147808986Y-113765231D01*
X147820984Y-113761631D01*
X147832726Y-113757550D01*
X147844212Y-113752989D01*
X147860959Y-113745248D01*
X147877130Y-113736426D01*
X147892723Y-113726524D01*
X147907739Y-113715542D01*
X147917481Y-113707695D01*
X147931669Y-113695304D01*
X147945347Y-113682169D01*
X147958514Y-113668290D01*
X147971172Y-113653666D01*
X147983319Y-113638297D01*
X147994957Y-113622184D01*
X148006084Y-113605327D01*
X148016702Y-113587725D01*
X148026809Y-113569378D01*
X148036406Y-113550287D01*
X148042528Y-113537130D01*
X148051311Y-113516908D01*
X148059616Y-113496102D01*
X148067441Y-113474712D01*
X148074786Y-113452738D01*
X148081653Y-113430180D01*
X148088041Y-113407039D01*
X148092033Y-113391287D01*
X148095812Y-113375275D01*
X148099379Y-113359004D01*
X148102732Y-113342473D01*
X148105873Y-113325683D01*
X148108800Y-113308633D01*
X148111568Y-113291397D01*
X148114158Y-113274047D01*
X148116569Y-113256584D01*
X148118802Y-113239007D01*
X148120856Y-113221317D01*
X148122731Y-113203513D01*
X148124428Y-113185596D01*
X148125946Y-113167565D01*
X148127285Y-113149420D01*
X148128446Y-113131162D01*
X148129429Y-113112791D01*
X148130232Y-113094306D01*
X148130857Y-113075707D01*
X148131304Y-113056995D01*
X148131572Y-113038169D01*
X148131661Y-113019230D01*
X148131657Y-113018400D01*
X148228381Y-113018400D01*
X148228466Y-113037404D01*
X148228720Y-113056320D01*
X148229144Y-113075149D01*
X148229737Y-113093891D01*
X148230499Y-113112544D01*
X148231431Y-113131110D01*
X148232533Y-113149589D01*
X148233803Y-113167980D01*
X148235244Y-113186283D01*
X148236853Y-113204499D01*
X148238633Y-113222628D01*
X148240581Y-113240668D01*
X148242699Y-113258621D01*
X148244987Y-113276487D01*
X148247444Y-113294265D01*
X148250070Y-113311955D01*
X148251471Y-113320722D01*
X148254436Y-113338077D01*
X148257619Y-113355192D01*
X148261019Y-113372066D01*
X148264637Y-113388701D01*
X148268473Y-113405095D01*
X148272526Y-113421249D01*
X148276796Y-113437164D01*
X148281284Y-113452838D01*
X148285989Y-113468272D01*
X148290913Y-113483466D01*
X148296053Y-113498421D01*
X148304172Y-113520402D01*
X148312780Y-113541843D01*
X148321877Y-113562744D01*
X148328217Y-113576274D01*
X148338142Y-113595924D01*
X148348567Y-113614801D01*
X148359492Y-113632904D01*
X148370916Y-113650234D01*
X148382841Y-113666789D01*
X148395265Y-113682572D01*
X148408189Y-113697580D01*
X148421612Y-113711815D01*
X148435535Y-113725276D01*
X148449958Y-113737963D01*
X148459911Y-113745908D01*
X148475342Y-113756863D01*
X148491376Y-113766665D01*
X148502400Y-113772559D01*
X148513692Y-113777941D01*
X148525252Y-113782810D01*
X148537080Y-113787166D01*
X148549176Y-113791010D01*
X148561539Y-113794342D01*
X148574171Y-113797161D01*
X148587070Y-113799467D01*
X148600238Y-113801261D01*
X148613673Y-113802542D01*
X148627376Y-113803311D01*
X148641347Y-113803567D01*
X148651460Y-113803434D01*
X148666359Y-113802736D01*
X148680933Y-113801439D01*
X148695182Y-113799544D01*
X148709107Y-113797050D01*
X148722708Y-113793958D01*
X148735984Y-113790267D01*
X148748935Y-113785978D01*
X148761562Y-113781090D01*
X148773864Y-113775604D01*
X148785841Y-113769520D01*
X148793692Y-113765153D01*
X148805231Y-113758191D01*
X148816488Y-113750731D01*
X148827460Y-113742776D01*
X148838150Y-113734324D01*
X148848556Y-113725376D01*
X148858679Y-113715931D01*
X148868518Y-113705990D01*
X148878075Y-113695553D01*
X148887347Y-113684620D01*
X148896337Y-113673190D01*
X148902214Y-113665243D01*
X148910817Y-113652908D01*
X148919161Y-113640077D01*
X148927248Y-113626750D01*
X148935077Y-113612926D01*
X148942649Y-113598606D01*
X148949963Y-113583790D01*
X148957020Y-113568477D01*
X148963819Y-113552668D01*
X148970360Y-113536363D01*
X148976644Y-113519562D01*
X148980732Y-113508112D01*
X148986671Y-113490628D01*
X148992379Y-113472772D01*
X148997855Y-113454544D01*
X149003099Y-113435943D01*
X149008111Y-113416970D01*
X149012891Y-113397625D01*
X149017439Y-113377908D01*
X149021756Y-113357818D01*
X149025840Y-113337356D01*
X149029693Y-113316522D01*
X148892820Y-113241784D01*
X148890673Y-113251712D01*
X148886246Y-113271184D01*
X148881644Y-113290148D01*
X148876865Y-113308602D01*
X148871910Y-113326547D01*
X148866779Y-113343983D01*
X148861471Y-113360909D01*
X148855987Y-113377326D01*
X148850327Y-113393234D01*
X148844490Y-113408633D01*
X148838477Y-113423522D01*
X148832288Y-113437902D01*
X148822673Y-113458517D01*
X148812662Y-113477986D01*
X148802254Y-113496310D01*
X148791278Y-113513228D01*
X148779452Y-113528482D01*
X148766775Y-113542072D01*
X148753248Y-113553998D01*
X148738872Y-113564260D01*
X148723645Y-113572858D01*
X148707568Y-113579792D01*
X148690641Y-113585061D01*
X148678885Y-113587650D01*
X148666750Y-113589499D01*
X148654237Y-113590608D01*
X148641347Y-113590978D01*
X148636829Y-113590929D01*
X148623578Y-113590193D01*
X148610781Y-113588574D01*
X148598437Y-113586072D01*
X148586546Y-113582686D01*
X148575108Y-113578418D01*
X148560564Y-113571353D01*
X148546825Y-113562718D01*
X148533892Y-113552513D01*
X148521766Y-113540737D01*
X148518854Y-113537567D01*
X148507591Y-113524277D01*
X148496941Y-113510014D01*
X148486905Y-113494777D01*
X148477482Y-113478568D01*
X148468674Y-113461385D01*
X148460478Y-113443229D01*
X148452897Y-113424100D01*
X148447614Y-113409115D01*
X148444269Y-113398858D01*
X148439489Y-113383156D01*
X148434992Y-113367075D01*
X148430779Y-113350614D01*
X148426849Y-113333773D01*
X148423202Y-113316553D01*
X148419839Y-113298954D01*
X148416759Y-113280975D01*
X148413962Y-113262616D01*
X148411449Y-113243878D01*
X148409219Y-113224760D01*
X148407870Y-113211890D01*
X148406010Y-113192592D01*
X148404346Y-113173300D01*
X148402878Y-113154016D01*
X148401605Y-113134739D01*
X148400528Y-113115469D01*
X148399647Y-113096207D01*
X148398962Y-113076952D01*
X148398473Y-113057704D01*
X148398179Y-113038463D01*
X148398081Y-113019230D01*
X148398125Y-113006363D01*
X148398353Y-112987081D01*
X148398777Y-112967822D01*
X148399397Y-112948583D01*
X148400213Y-112929367D01*
X148401225Y-112910173D01*
X148402432Y-112891001D01*
X148403835Y-112871850D01*
X148405434Y-112852722D01*
X148407228Y-112833615D01*
X148409219Y-112814530D01*
X148410676Y-112801892D01*
X148413107Y-112783227D01*
X148415832Y-112764912D01*
X148418850Y-112746948D01*
X148422162Y-112729334D01*
X148425767Y-112712070D01*
X148429666Y-112695156D01*
X148433859Y-112678593D01*
X148438346Y-112662381D01*
X148443126Y-112646518D01*
X148448200Y-112631006D01*
X148449976Y-112625899D01*
X148455513Y-112610953D01*
X148463386Y-112591898D01*
X148471817Y-112573843D01*
X148480806Y-112556787D01*
X148490355Y-112540730D01*
X148500462Y-112525672D01*
X148511127Y-112511613D01*
X148522352Y-112498553D01*
X148525272Y-112495462D01*
X148537467Y-112484080D01*
X148550487Y-112474267D01*
X148564331Y-112466024D01*
X148578999Y-112459352D01*
X148590542Y-112455378D01*
X148602547Y-112452287D01*
X148615017Y-112450079D01*
X148627950Y-112448754D01*
X148641347Y-112448312D01*
X148655109Y-112448844D01*
X148668403Y-112450440D01*
X148681230Y-112453100D01*
X148693591Y-112456824D01*
X148705484Y-112461612D01*
X148716910Y-112467464D01*
X148727869Y-112474380D01*
X148738360Y-112482360D01*
X148745985Y-112488845D01*
X148755767Y-112498048D01*
X148767376Y-112510445D01*
X148778299Y-112523836D01*
X148788534Y-112538221D01*
X148798082Y-112553598D01*
X148806944Y-112569970D01*
X148811923Y-112580151D01*
X148819638Y-112597737D01*
X148825285Y-112612360D01*
X148830464Y-112627477D01*
X148835177Y-112643086D01*
X148839422Y-112659189D01*
X148843200Y-112675784D01*
X148846511Y-112692873D01*
X148849396Y-112710240D01*
X148851897Y-112727673D01*
X148854012Y-112745170D01*
X148855743Y-112762732D01*
X148857090Y-112780359D01*
X148858052Y-112798051D01*
X148858629Y-112815808D01*
X148858821Y-112833630D01*
X149012987Y-112833630D01*
X149012987Y-112262297D01*
X148858821Y-112262297D01*
X148858821Y-112436686D01*
X148857523Y-112430606D01*
X148852996Y-112412890D01*
X148847521Y-112395962D01*
X148841098Y-112379822D01*
X148833727Y-112364470D01*
X148825408Y-112349907D01*
X148822447Y-112345231D01*
X148813190Y-112331767D01*
X148803377Y-112319150D01*
X148793008Y-112307380D01*
X148782082Y-112296456D01*
X148770600Y-112286379D01*
X148766661Y-112283213D01*
X148754609Y-112274338D01*
X148742206Y-112266397D01*
X148729453Y-112259391D01*
X148716350Y-112253318D01*
X148702896Y-112248180D01*
X148698392Y-112246671D01*
X148684908Y-112242730D01*
X148671465Y-112239665D01*
X148658062Y-112237475D01*
X148644702Y-112236161D01*
X148631382Y-112235723D01*
X148624564Y-112235788D01*
X148611125Y-112236300D01*
X148597950Y-112237325D01*
X148585038Y-112238863D01*
X148572389Y-112240913D01*
X148560004Y-112243475D01*
X148547882Y-112246551D01*
X148536023Y-112250138D01*
X148524427Y-112254239D01*
X148507528Y-112261350D01*
X148491221Y-112269614D01*
X148475507Y-112279032D01*
X148460385Y-112289603D01*
X148445855Y-112301327D01*
X148436506Y-112309693D01*
X148422869Y-112322862D01*
X148409695Y-112336776D01*
X148396985Y-112351434D01*
X148384739Y-112366837D01*
X148372956Y-112382984D01*
X148361637Y-112399875D01*
X148350782Y-112417511D01*
X148340390Y-112435892D01*
X148330462Y-112455017D01*
X148320998Y-112474886D01*
X148312058Y-112495427D01*
X148303591Y-112516566D01*
X148295599Y-112538304D01*
X148288080Y-112560640D01*
X148283331Y-112575864D01*
X148278793Y-112591353D01*
X148274465Y-112607109D01*
X148270348Y-112623130D01*
X148266442Y-112639417D01*
X148262746Y-112655971D01*
X148259261Y-112672790D01*
X148255987Y-112689875D01*
X148252923Y-112707227D01*
X148250070Y-112724844D01*
X148247444Y-112742583D01*
X148244987Y-112760403D01*
X148242699Y-112778304D01*
X148240581Y-112796287D01*
X148238633Y-112814350D01*
X148236853Y-112832495D01*
X148235244Y-112850720D01*
X148233803Y-112869027D01*
X148232533Y-112887415D01*
X148231431Y-112905883D01*
X148230499Y-112924433D01*
X148229737Y-112943064D01*
X148229144Y-112961777D01*
X148228720Y-112980570D01*
X148228466Y-112999444D01*
X148228381Y-113018400D01*
X148131657Y-113018400D01*
X148131570Y-113000244D01*
X148131295Y-112981381D01*
X148130837Y-112962641D01*
X148130196Y-112944025D01*
X148129371Y-112925531D01*
X148128364Y-112907162D01*
X148127173Y-112888915D01*
X148125799Y-112870791D01*
X148124242Y-112852791D01*
X148122502Y-112834914D01*
X148120579Y-112817161D01*
X148118472Y-112799531D01*
X148116182Y-112782024D01*
X148113709Y-112764640D01*
X148111053Y-112747379D01*
X148108214Y-112730242D01*
X148106722Y-112721711D01*
X148103583Y-112704846D01*
X148100235Y-112688244D01*
X148096679Y-112671905D01*
X148092915Y-112655828D01*
X148088942Y-112640015D01*
X148082592Y-112616787D01*
X148075774Y-112594150D01*
X148068486Y-112572104D01*
X148060730Y-112550650D01*
X148052505Y-112529787D01*
X148043811Y-112509515D01*
X148034648Y-112489834D01*
X148028306Y-112477072D01*
X148018369Y-112458539D01*
X148007922Y-112440735D01*
X147996964Y-112423661D01*
X147985497Y-112407317D01*
X147973519Y-112391702D01*
X147961032Y-112376818D01*
X147948034Y-112362663D01*
X147934526Y-112349239D01*
X147920508Y-112336544D01*
X147905981Y-112324579D01*
X147890980Y-112313449D01*
X147875433Y-112303413D01*
X147859340Y-112294472D01*
X147842700Y-112286626D01*
X147831304Y-112282003D01*
X147819665Y-112277868D01*
X147807784Y-112274218D01*
X147795659Y-112271055D01*
X147783292Y-112268379D01*
X147770682Y-112266190D01*
X147757830Y-112264487D01*
X147744735Y-112263270D01*
X147731397Y-112262540D01*
X147717816Y-112262297D01*
X147368451Y-112262297D01*
X146894229Y-112262297D01*
X146698151Y-112262297D01*
X146492087Y-113192374D01*
X146362561Y-113776994D01*
X146119704Y-113776994D01*
X146119704Y-111992866D01*
X149272550Y-111992866D01*
X149272550Y-114046424D01*
G37*
G36*
X116926418Y-127649511D02*
G01*
X116926216Y-127664149D01*
X116925157Y-127685353D01*
X116923189Y-127705656D01*
X116920314Y-127725058D01*
X116916530Y-127743558D01*
X116911839Y-127761156D01*
X116906239Y-127777853D01*
X116899732Y-127793648D01*
X116892316Y-127808542D01*
X116883992Y-127822534D01*
X116874760Y-127835624D01*
X116868147Y-127843787D01*
X116857471Y-127855044D01*
X116845886Y-127865117D01*
X116833394Y-127874004D01*
X116819993Y-127881706D01*
X116805685Y-127888223D01*
X116790468Y-127893556D01*
X116774343Y-127897703D01*
X116757311Y-127900665D01*
X116739370Y-127902443D01*
X116720521Y-127903035D01*
X116707454Y-127902772D01*
X116688652Y-127901389D01*
X116670810Y-127898822D01*
X116653928Y-127895070D01*
X116638005Y-127890132D01*
X116623041Y-127884010D01*
X116609038Y-127876703D01*
X116595993Y-127868211D01*
X116583909Y-127858533D01*
X116572784Y-127847671D01*
X116562618Y-127835624D01*
X116556407Y-127826997D01*
X116547842Y-127813306D01*
X116540178Y-127798713D01*
X116533416Y-127783218D01*
X116527556Y-127766822D01*
X116522597Y-127749524D01*
X116518540Y-127731325D01*
X116515384Y-127712224D01*
X116513130Y-127692221D01*
X116511778Y-127671317D01*
X116511327Y-127649511D01*
X116511327Y-127419801D01*
X116926418Y-127419801D01*
X116926418Y-127649511D01*
G37*
G36*
X117351730Y-130620688D02*
G01*
X115539766Y-130620688D01*
X115539766Y-130247767D01*
X115777500Y-130247767D01*
X115965078Y-130247767D01*
X115965078Y-130034176D01*
X116926418Y-130034176D01*
X116926418Y-130215527D01*
X116628930Y-130215527D01*
X116628930Y-130406402D01*
X117113996Y-130406402D01*
X117113996Y-129447993D01*
X116628930Y-129447993D01*
X116628930Y-129637770D01*
X116926418Y-129637770D01*
X116926418Y-129820952D01*
X115965078Y-129820952D01*
X115965078Y-129608827D01*
X115777500Y-129608827D01*
X115777500Y-130247767D01*
X115539766Y-130247767D01*
X115539766Y-128823342D01*
X115754052Y-128823342D01*
X115754157Y-128833838D01*
X115754705Y-128849442D01*
X115755724Y-128864879D01*
X115757212Y-128880148D01*
X115759171Y-128895250D01*
X115761600Y-128910184D01*
X115764499Y-128924951D01*
X115767868Y-128939551D01*
X115771708Y-128953983D01*
X115776017Y-128968247D01*
X115780797Y-128982344D01*
X115782491Y-128986995D01*
X115787849Y-129000703D01*
X115795635Y-129018408D01*
X115804153Y-129035461D01*
X115813403Y-129051862D01*
X115823387Y-129067610D01*
X115834103Y-129082705D01*
X115845552Y-129097148D01*
X115857733Y-129110938D01*
X115860892Y-129114305D01*
X115873955Y-129127328D01*
X115887705Y-129139641D01*
X115902142Y-129151245D01*
X115917266Y-129162138D01*
X115933077Y-129172322D01*
X115949575Y-129181796D01*
X115966760Y-129190560D01*
X115980099Y-129196667D01*
X115989244Y-129200483D01*
X116003251Y-129205744D01*
X116017605Y-129210452D01*
X116032308Y-129214606D01*
X116047358Y-129218206D01*
X116062756Y-129221252D01*
X116078502Y-129223744D01*
X116094596Y-129225683D01*
X116111037Y-129227067D01*
X116127826Y-129227898D01*
X116144963Y-129228175D01*
X116157525Y-129228026D01*
X116175907Y-129227245D01*
X116193735Y-129225793D01*
X116211009Y-129223673D01*
X116227730Y-129220882D01*
X116243896Y-129217421D01*
X116259509Y-129213291D01*
X116274568Y-129208491D01*
X116289073Y-129203022D01*
X116303024Y-129196882D01*
X116316421Y-129190073D01*
X116325131Y-129185226D01*
X116337884Y-129177638D01*
X116350264Y-129169671D01*
X116366190Y-129158457D01*
X116381451Y-129146567D01*
X116396048Y-129134002D01*
X116409982Y-129120761D01*
X116423251Y-129106845D01*
X116435856Y-129092254D01*
X116447975Y-129077078D01*
X116459601Y-129061410D01*
X116467998Y-129049336D01*
X116476118Y-129036986D01*
X116483960Y-129024358D01*
X116491526Y-129011453D01*
X116498815Y-128998272D01*
X116505827Y-128984813D01*
X116512563Y-128971078D01*
X116519021Y-128957065D01*
X116523250Y-128947673D01*
X116529480Y-128933568D01*
X116535576Y-128919444D01*
X116541536Y-128905301D01*
X116547361Y-128891138D01*
X116553051Y-128876956D01*
X116558605Y-128862755D01*
X116564025Y-128848534D01*
X116569309Y-128834295D01*
X116574457Y-128820035D01*
X116579471Y-128805757D01*
X116585361Y-128790776D01*
X116591126Y-128776242D01*
X116596764Y-128762154D01*
X116603636Y-128745172D01*
X116610310Y-128728888D01*
X116616787Y-128713301D01*
X116623068Y-128698412D01*
X116626872Y-128689895D01*
X116633326Y-128676316D01*
X116641261Y-128661036D01*
X116649401Y-128646863D01*
X116657747Y-128633799D01*
X116666299Y-128621842D01*
X116670672Y-128616266D01*
X116681226Y-128604232D01*
X116692270Y-128593566D01*
X116703806Y-128584267D01*
X116717590Y-128575314D01*
X116722983Y-128572498D01*
X116738370Y-128566345D01*
X116753036Y-128562575D01*
X116768824Y-128560314D01*
X116785734Y-128559560D01*
X116804693Y-128560516D01*
X116822554Y-128563384D01*
X116839315Y-128568164D01*
X116854977Y-128574856D01*
X116869540Y-128583460D01*
X116883004Y-128593975D01*
X116895368Y-128606403D01*
X116906634Y-128620743D01*
X116914360Y-128632557D01*
X116923479Y-128649161D01*
X116931247Y-128666738D01*
X116936187Y-128680559D01*
X116940366Y-128694928D01*
X116943786Y-128709844D01*
X116946446Y-128725307D01*
X116948345Y-128741318D01*
X116949485Y-128757877D01*
X116949865Y-128774982D01*
X116949605Y-128787958D01*
X116948237Y-128806794D01*
X116945698Y-128824876D01*
X116941986Y-128842205D01*
X116937103Y-128858781D01*
X116931047Y-128874603D01*
X116923819Y-128889671D01*
X116915419Y-128903986D01*
X116905847Y-128917548D01*
X116895103Y-128930356D01*
X116883187Y-128942411D01*
X116874693Y-128949953D01*
X116861185Y-128960353D01*
X116846757Y-128969659D01*
X116831407Y-128977870D01*
X116815136Y-128984986D01*
X116797945Y-128991008D01*
X116779832Y-128995934D01*
X116760799Y-128999766D01*
X116740844Y-129002503D01*
X116719969Y-129004145D01*
X116698173Y-129004693D01*
X116698173Y-129196301D01*
X117113996Y-129196301D01*
X117113996Y-129004693D01*
X116995661Y-129004693D01*
X117011294Y-128995236D01*
X117026138Y-128984817D01*
X117040191Y-128973437D01*
X117053455Y-128961095D01*
X117065928Y-128947792D01*
X117077612Y-128933526D01*
X117088505Y-128918299D01*
X117098609Y-128902111D01*
X117107711Y-128885120D01*
X117115599Y-128867306D01*
X117120719Y-128853404D01*
X117125156Y-128839039D01*
X117128911Y-128824210D01*
X117131983Y-128808917D01*
X117134372Y-128793160D01*
X117136078Y-128776940D01*
X117137102Y-128760256D01*
X117137444Y-128743109D01*
X117137354Y-128733068D01*
X117136880Y-128718136D01*
X117136001Y-128703358D01*
X117134198Y-128683895D01*
X117131673Y-128664707D01*
X117128428Y-128645793D01*
X117124461Y-128627154D01*
X117119772Y-128608790D01*
X117114363Y-128590701D01*
X117108243Y-128573110D01*
X117101425Y-128556057D01*
X117093909Y-128539542D01*
X117085695Y-128523565D01*
X117076782Y-128508126D01*
X117067170Y-128493225D01*
X117056861Y-128478863D01*
X117045853Y-128465038D01*
X117034255Y-128451906D01*
X117021993Y-128439438D01*
X117009067Y-128427635D01*
X116995478Y-128416495D01*
X116981224Y-128406019D01*
X116966306Y-128396207D01*
X116950724Y-128387060D01*
X116934478Y-128378576D01*
X116926147Y-128374672D01*
X116908963Y-128367619D01*
X116891079Y-128361574D01*
X116872498Y-128356537D01*
X116858103Y-128353420D01*
X116843316Y-128350870D01*
X116828136Y-128348886D01*
X116812563Y-128347469D01*
X116796597Y-128346619D01*
X116780239Y-128346336D01*
X116761651Y-128346652D01*
X116743668Y-128347598D01*
X116726291Y-128349176D01*
X116709519Y-128351385D01*
X116693352Y-128354225D01*
X116677791Y-128357696D01*
X116662835Y-128361798D01*
X116648485Y-128366532D01*
X116630292Y-128373825D01*
X116613176Y-128382240D01*
X116597011Y-128391639D01*
X116581486Y-128401703D01*
X116566602Y-128412430D01*
X116552360Y-128423822D01*
X116538759Y-128435878D01*
X116525799Y-128448597D01*
X116513480Y-128461981D01*
X116501802Y-128476029D01*
X116498999Y-128479661D01*
X116488068Y-128494485D01*
X116477584Y-128509778D01*
X116467546Y-128525540D01*
X116457955Y-128541772D01*
X116448810Y-128558473D01*
X116440112Y-128575643D01*
X116431860Y-128593283D01*
X116425964Y-128606821D01*
X116424047Y-128611401D01*
X116418368Y-128625139D01*
X116412798Y-128638878D01*
X116407338Y-128652617D01*
X116401988Y-128666355D01*
X116396747Y-128680094D01*
X116389929Y-128698412D01*
X116383306Y-128716730D01*
X116376877Y-128735049D01*
X116370643Y-128753367D01*
X116369180Y-128757201D01*
X116363370Y-128772279D01*
X116357628Y-128786945D01*
X116351955Y-128801199D01*
X116346351Y-128815040D01*
X116339442Y-128831763D01*
X116332641Y-128847841D01*
X116325947Y-128863276D01*
X116319242Y-128878127D01*
X116312180Y-128892227D01*
X116304759Y-128905576D01*
X116296981Y-128918173D01*
X116287175Y-128932298D01*
X116276854Y-128945342D01*
X116273298Y-128949493D01*
X116262268Y-128961210D01*
X116250698Y-128971819D01*
X116238586Y-128981320D01*
X116225934Y-128989713D01*
X116212740Y-128996999D01*
X116203535Y-129001206D01*
X116188869Y-129006466D01*
X116173173Y-129010463D01*
X116156446Y-129013198D01*
X116141720Y-129014513D01*
X116126278Y-129014951D01*
X116108669Y-129014432D01*
X116091975Y-129012877D01*
X116076194Y-129010285D01*
X116061329Y-129006656D01*
X116042930Y-129000205D01*
X116026158Y-128991910D01*
X116011011Y-128981772D01*
X115997490Y-128969791D01*
X115985594Y-128955966D01*
X115980271Y-128948494D01*
X115970654Y-128932683D01*
X115962410Y-128915716D01*
X115955541Y-128897593D01*
X115951291Y-128883241D01*
X115947813Y-128868239D01*
X115945108Y-128852587D01*
X115943176Y-128836284D01*
X115942017Y-128819331D01*
X115941631Y-128801727D01*
X115941701Y-128794653D01*
X115942490Y-128777181D01*
X115944155Y-128760013D01*
X115946697Y-128743149D01*
X115950116Y-128726589D01*
X115954411Y-128710334D01*
X115959583Y-128694382D01*
X115961891Y-128688155D01*
X115968225Y-128673002D01*
X115975365Y-128658438D01*
X115983309Y-128644465D01*
X115992059Y-128631083D01*
X116001613Y-128618290D01*
X116011973Y-128606088D01*
X116016383Y-128601383D01*
X116027936Y-128590120D01*
X116040240Y-128579573D01*
X116053295Y-128569741D01*
X116067102Y-128560625D01*
X116081660Y-128552224D01*
X116096969Y-128544539D01*
X116103349Y-128541744D01*
X116119825Y-128535546D01*
X116137052Y-128530474D01*
X116151374Y-128527228D01*
X116166178Y-128524704D01*
X116181462Y-128522901D01*
X116197227Y-128521819D01*
X116213473Y-128521458D01*
X116213473Y-128329850D01*
X115777500Y-128329850D01*
X115777500Y-128521458D01*
X115898033Y-128521458D01*
X115888585Y-128528366D01*
X115875046Y-128539045D01*
X115862267Y-128550103D01*
X115850248Y-128561542D01*
X115838989Y-128573360D01*
X115828489Y-128585559D01*
X115818750Y-128598137D01*
X115809770Y-128611095D01*
X115801551Y-128624434D01*
X115794091Y-128638152D01*
X115787391Y-128652250D01*
X115783354Y-128661849D01*
X115777787Y-128676520D01*
X115772805Y-128691520D01*
X115768410Y-128706848D01*
X115764601Y-128722505D01*
X115761378Y-128738490D01*
X115758741Y-128754804D01*
X115756689Y-128771446D01*
X115755224Y-128788416D01*
X115754345Y-128805715D01*
X115754052Y-128823342D01*
X115539766Y-128823342D01*
X115539766Y-127206577D01*
X115777500Y-127206577D01*
X115777500Y-127419801D01*
X116321550Y-127419801D01*
X116321550Y-127516521D01*
X115777500Y-127864933D01*
X115777500Y-128134944D01*
X116329610Y-127751727D01*
X116332456Y-127770881D01*
X116335862Y-127789691D01*
X116339829Y-127808158D01*
X116344357Y-127826282D01*
X116349446Y-127844062D01*
X116355096Y-127861499D01*
X116361307Y-127878592D01*
X116368079Y-127895342D01*
X116375440Y-127911662D01*
X116383420Y-127927467D01*
X116392018Y-127942757D01*
X116401235Y-127957532D01*
X116411069Y-127971792D01*
X116421522Y-127985536D01*
X116432593Y-127998765D01*
X116444282Y-128011479D01*
X116456579Y-128023666D01*
X116469470Y-128035132D01*
X116482957Y-128045877D01*
X116497039Y-128055901D01*
X116511716Y-128065203D01*
X116526989Y-128073784D01*
X116542857Y-128081644D01*
X116559321Y-128088782D01*
X116567827Y-128092109D01*
X116585321Y-128098120D01*
X116603456Y-128103272D01*
X116622232Y-128107565D01*
X116636735Y-128110222D01*
X116651599Y-128112395D01*
X116666823Y-128114086D01*
X116682408Y-128115293D01*
X116698353Y-128116018D01*
X116714659Y-128116259D01*
X116738965Y-128115780D01*
X116762516Y-128114342D01*
X116785310Y-128111944D01*
X116807349Y-128108589D01*
X116828633Y-128104274D01*
X116849161Y-128099000D01*
X116868933Y-128092768D01*
X116887950Y-128085576D01*
X116906211Y-128077426D01*
X116923716Y-128068317D01*
X116940466Y-128058249D01*
X116956460Y-128047222D01*
X116971698Y-128035237D01*
X116986181Y-128022293D01*
X116999908Y-128008389D01*
X117012880Y-127993527D01*
X117025124Y-127977844D01*
X117036579Y-127961384D01*
X117047244Y-127944150D01*
X117057118Y-127926139D01*
X117066203Y-127907353D01*
X117074498Y-127887791D01*
X117082002Y-127867454D01*
X117088717Y-127846340D01*
X117094642Y-127824452D01*
X117099777Y-127801787D01*
X117104122Y-127778347D01*
X117107677Y-127754131D01*
X117110441Y-127729140D01*
X117112416Y-127703372D01*
X117113601Y-127676830D01*
X117113996Y-127649511D01*
X117113996Y-127206577D01*
X115777500Y-127206577D01*
X115539766Y-127206577D01*
X115539766Y-126992291D01*
X117351730Y-126992291D01*
X117351730Y-130620688D01*
G37*
D12*
%TO.C,R305*%
X123881141Y-120410000D02*
X123573859Y-120410000D01*
X123881141Y-119650000D02*
X123573859Y-119650000D01*
%TO.C,C203*%
X146190000Y-144807836D02*
X146190000Y-144592164D01*
X146910000Y-144807836D02*
X146910000Y-144592164D01*
%TO.C,J203*%
X126903825Y-126993825D02*
X126903825Y-127628825D01*
X126268825Y-126993825D02*
X126903825Y-126993825D01*
%TO.C,R101*%
X146280000Y-109623641D02*
X146280000Y-109316359D01*
X147040000Y-109623641D02*
X147040000Y-109316359D01*
%TO.C,C311*%
X123855336Y-119360000D02*
X123639664Y-119360000D01*
X123855336Y-118640000D02*
X123639664Y-118640000D01*
%TO.C,C303*%
X124117500Y-115017836D02*
X124117500Y-114802164D01*
X124837500Y-115017836D02*
X124837500Y-114802164D01*
%TO.C,U1*%
X125940000Y-117090000D02*
X126415000Y-117090000D01*
X131160000Y-117565000D02*
X131160000Y-117090000D01*
X125940000Y-117565000D02*
X125940000Y-117090000D01*
X131160000Y-121835000D02*
X131160000Y-122310000D01*
X125940000Y-121835000D02*
X125940000Y-122310000D01*
X131160000Y-122310000D02*
X130685000Y-122310000D01*
X125940000Y-122310000D02*
X126415000Y-122310000D01*
%TO.C,U201*%
X142740000Y-145860000D02*
X142740000Y-147660000D01*
X142740000Y-145860000D02*
X142740000Y-145060000D01*
X145860000Y-145860000D02*
X145860000Y-146660000D01*
X145860000Y-145860000D02*
X145860000Y-145060000D01*
%TO.C,C313*%
X136320000Y-121292164D02*
X136320000Y-121507836D01*
X135600000Y-121292164D02*
X135600000Y-121507836D01*
%TO.C,R303*%
X137286359Y-118570000D02*
X137593641Y-118570000D01*
X137286359Y-119330000D02*
X137593641Y-119330000D01*
%TO.C,R201*%
X147160000Y-144833641D02*
X147160000Y-144526359D01*
X147920000Y-144833641D02*
X147920000Y-144526359D01*
%TO.C,R302*%
X123573859Y-121710000D02*
X123881141Y-121710000D01*
X123573859Y-122470000D02*
X123881141Y-122470000D01*
%TO.C,D201*%
X142440000Y-139070000D02*
X142440000Y-141070000D01*
X142440000Y-139070000D02*
X146300000Y-139070000D01*
X142440000Y-141070000D02*
X146300000Y-141070000D01*
%TO.C,R205*%
X127155000Y-103788641D02*
X127155000Y-103481359D01*
X127915000Y-103788641D02*
X127915000Y-103481359D01*
%TO.C,C301*%
X130689664Y-111620000D02*
X130905336Y-111620000D01*
X130689664Y-112340000D02*
X130905336Y-112340000D01*
%TO.C,SW301*%
X120925000Y-126675000D02*
X120805000Y-126675000D01*
X119795000Y-126675000D02*
X118655000Y-126675000D01*
X117645000Y-126675000D02*
X117525000Y-126675000D01*
X117525000Y-126675000D02*
X117525000Y-131075000D01*
X120925000Y-131075000D02*
X120925000Y-126675000D01*
X120805000Y-131075000D02*
X120925000Y-131075000D01*
X118655000Y-131075000D02*
X119795000Y-131075000D01*
X117525000Y-131075000D02*
X117645000Y-131075000D01*
%TO.C,R212*%
X137545000Y-103788641D02*
X137545000Y-103481359D01*
X138305000Y-103788641D02*
X138305000Y-103481359D01*
%TO.C,C202*%
X142160000Y-140452164D02*
X142160000Y-140667836D01*
X141440000Y-140452164D02*
X141440000Y-140667836D01*
%TO.C,L301*%
X130837500Y-113817221D02*
X130837500Y-114142779D01*
X129817500Y-113817221D02*
X129817500Y-114142779D01*
%TO.C,R207*%
X130915000Y-103788641D02*
X130915000Y-103481359D01*
X131675000Y-103788641D02*
X131675000Y-103481359D01*
%TO.C,R209*%
X134770000Y-103788641D02*
X134770000Y-103481359D01*
X135530000Y-103788641D02*
X135530000Y-103481359D01*
%TO.C,R213*%
X145583641Y-143650000D02*
X145276359Y-143650000D01*
X145583641Y-142890000D02*
X145276359Y-142890000D01*
%TO.C,C309*%
X128155336Y-115725000D02*
X127939664Y-115725000D01*
X128155336Y-115005000D02*
X127939664Y-115005000D01*
%TO.C,R301*%
X125880000Y-114736359D02*
X125880000Y-115043641D01*
X125120000Y-114736359D02*
X125120000Y-115043641D01*
%TO.C,R208*%
X129915000Y-103788641D02*
X129915000Y-103481359D01*
X130675000Y-103788641D02*
X130675000Y-103481359D01*
%TO.C,R206*%
X126155000Y-103788641D02*
X126155000Y-103481359D01*
X126915000Y-103788641D02*
X126915000Y-103481359D01*
%TO.C,R211*%
X138535000Y-103788641D02*
X138535000Y-103481359D01*
X139295000Y-103788641D02*
X139295000Y-103481359D01*
%TO.C,C201*%
X145302164Y-141920000D02*
X145517836Y-141920000D01*
X145302164Y-142640000D02*
X145517836Y-142640000D01*
%TO.C,R203*%
X123305000Y-103788641D02*
X123305000Y-103481359D01*
X124065000Y-103788641D02*
X124065000Y-103481359D01*
%TO.C,J103*%
X142970000Y-115220000D02*
X144300000Y-115220000D01*
X142970000Y-116550000D02*
X142970000Y-115220000D01*
X142970000Y-117820000D02*
X142970000Y-120420000D01*
X142970000Y-117820000D02*
X145630000Y-117820000D01*
X142970000Y-120420000D02*
X145630000Y-120420000D01*
X145630000Y-117820000D02*
X145630000Y-120420000D01*
%TO.C,R210*%
X133765000Y-103788641D02*
X133765000Y-103481359D01*
X134525000Y-103788641D02*
X134525000Y-103481359D01*
%TO.C,R204*%
X122310000Y-103788641D02*
X122310000Y-103481359D01*
X123070000Y-103788641D02*
X123070000Y-103481359D01*
%TO.C,C307*%
X126587836Y-111430000D02*
X126372164Y-111430000D01*
X126587836Y-110710000D02*
X126372164Y-110710000D01*
%TO.C,C204*%
X143002500Y-131797500D02*
X143002500Y-131010000D01*
X142608750Y-131403750D02*
X143396250Y-131403750D01*
X142504437Y-130770000D02*
X143790000Y-130770000D01*
X142504437Y-130770000D02*
X141440000Y-129705563D01*
X147195563Y-130770000D02*
X145910000Y-130770000D01*
X147195563Y-130770000D02*
X148260000Y-129705563D01*
X141440000Y-129705563D02*
X141440000Y-123950000D01*
X148260000Y-129705563D02*
X148260000Y-123950000D01*
X141440000Y-123950000D02*
X143790000Y-123950000D01*
X148260000Y-123950000D02*
X145910000Y-123950000D01*
%TO.C,Y1*%
X136660000Y-122260000D02*
X138960000Y-122260000D01*
X138960000Y-122260000D02*
X138960000Y-119560000D01*
%TO.C,C205*%
X135086252Y-141935000D02*
X133663748Y-141935000D01*
X135086252Y-140115000D02*
X133663748Y-140115000D01*
%TO.C,C206*%
X129230000Y-134263748D02*
X129230000Y-135686252D01*
X127410000Y-134263748D02*
X127410000Y-135686252D01*
%TO.C,C302*%
X130689664Y-115620000D02*
X130905336Y-115620000D01*
X130689664Y-116340000D02*
X130905336Y-116340000D01*
%TO.C,C310*%
X123847836Y-123470000D02*
X123632164Y-123470000D01*
X123847836Y-122750000D02*
X123632164Y-122750000D01*
%TO.C,SW302*%
X120925000Y-120825000D02*
X120805000Y-120825000D01*
X119795000Y-120825000D02*
X118655000Y-120825000D01*
X117645000Y-120825000D02*
X117525000Y-120825000D01*
X117525000Y-120825000D02*
X117525000Y-125225000D01*
X120925000Y-125225000D02*
X120925000Y-120825000D01*
X120805000Y-125225000D02*
X120925000Y-125225000D01*
X118655000Y-125225000D02*
X119795000Y-125225000D01*
X117525000Y-125225000D02*
X117645000Y-125225000D01*
%TO.C,C305*%
X132742164Y-117820000D02*
X132957836Y-117820000D01*
X132742164Y-118540000D02*
X132957836Y-118540000D01*
%TO.C,C101*%
X118425000Y-108970000D02*
X118425000Y-107640000D01*
X119755000Y-108970000D02*
X118425000Y-108970000D01*
X121025000Y-108970000D02*
X123625000Y-108970000D01*
X121025000Y-108970000D02*
X121025000Y-106310000D01*
X123625000Y-108970000D02*
X123625000Y-106310000D01*
X121025000Y-106310000D02*
X123625000Y-106310000D01*
%TO.C,C304*%
X123855336Y-121420000D02*
X123639664Y-121420000D01*
X123855336Y-120700000D02*
X123639664Y-120700000D01*
%TO.C,C306*%
X132742164Y-116820000D02*
X132957836Y-116820000D01*
X132742164Y-117540000D02*
X132957836Y-117540000D01*
%TO.C,U202*%
X130220000Y-139305000D02*
X130220000Y-133295000D01*
X137040000Y-137055000D02*
X137040000Y-133295000D01*
X130220000Y-133295000D02*
X131480000Y-133295000D01*
X137040000Y-133295000D02*
X135780000Y-133295000D01*
%TO.C,L201*%
X140970000Y-136920000D02*
X141120000Y-136920000D01*
X140970000Y-136920000D02*
X140970000Y-132400000D01*
X145490000Y-136920000D02*
X145340000Y-136920000D01*
X145490000Y-136920000D02*
X145490000Y-132400000D01*
X140970000Y-132400000D02*
X141120000Y-132400000D01*
X145490000Y-132400000D02*
X145340000Y-132400000D01*
%TO.C,R202*%
X147920000Y-146446359D02*
X147920000Y-146753641D01*
X147160000Y-146446359D02*
X147160000Y-146753641D01*
%TO.C,C308*%
X126587836Y-112430000D02*
X126372164Y-112430000D01*
X126587836Y-111710000D02*
X126372164Y-111710000D01*
%TO.C,L302*%
X128737500Y-113202221D02*
X128737500Y-113527779D01*
X127717500Y-113202221D02*
X127717500Y-113527779D01*
%TO.C,C312*%
X138540000Y-118617836D02*
X138540000Y-118402164D01*
X139260000Y-118617836D02*
X139260000Y-118402164D01*
%TO.C,J102*%
X142970000Y-109005000D02*
X144300000Y-109005000D01*
X142970000Y-110335000D02*
X142970000Y-109005000D01*
X142970000Y-111605000D02*
X142970000Y-114205000D01*
X142970000Y-111605000D02*
X145630000Y-111605000D01*
X142970000Y-114205000D02*
X145630000Y-114205000D01*
X145630000Y-111605000D02*
X145630000Y-114205000D01*
%TO.C,R304*%
X126157500Y-115043641D02*
X126157500Y-114736359D01*
X126917500Y-115043641D02*
X126917500Y-114736359D01*
%TD*%
%LPC*%
D13*
%TO.C,Q201*%
X121740000Y-101915000D03*
X122390000Y-101915000D03*
X123040000Y-101915000D03*
X123690000Y-101915000D03*
D14*
X121745000Y-98970000D03*
X122395000Y-98970000D03*
D15*
X122720000Y-100110000D03*
D14*
X123045000Y-98970000D03*
X123695000Y-98970000D03*
%TD*%
D16*
%TO.C,R305*%
X124237500Y-120030000D03*
X123217500Y-120030000D03*
%TD*%
D17*
%TO.C,C203*%
X146550000Y-145180000D03*
X146550000Y-144220000D03*
%TD*%
D13*
%TO.C,Q204*%
X133205000Y-101915000D03*
X133855000Y-101915000D03*
X134505000Y-101915000D03*
X135155000Y-101915000D03*
D14*
X133210000Y-98970000D03*
X133860000Y-98970000D03*
D15*
X134185000Y-100110000D03*
D14*
X134510000Y-98970000D03*
X135160000Y-98970000D03*
%TD*%
D18*
%TO.C,J101*%
X118870000Y-94225000D03*
X122680000Y-94225000D03*
X126490000Y-94225000D03*
X130300000Y-94225000D03*
X134110000Y-94225000D03*
X137920000Y-94265000D03*
%TD*%
D19*
%TO.C,J203*%
X127538825Y-128263825D03*
X122458825Y-129279825D03*
X122458825Y-127247825D03*
D20*
X126268825Y-127628825D03*
X126268825Y-128898825D03*
X124998825Y-127628825D03*
X124998825Y-128898825D03*
X123728825Y-127628825D03*
X123728825Y-128898825D03*
%TD*%
D21*
%TO.C,R101*%
X146660000Y-109980000D03*
X146660000Y-108960000D03*
%TD*%
D22*
%TO.C,REF\u002A\u002A*%
X116340000Y-147270000D03*
%TD*%
%TO.C,REF\u002A\u002A*%
X141700000Y-93490000D03*
%TD*%
D23*
%TO.C,C311*%
X124227500Y-119000000D03*
X123267500Y-119000000D03*
%TD*%
D13*
%TO.C,Q205*%
X136970000Y-101915000D03*
X137620000Y-101915000D03*
X138270000Y-101915000D03*
X138920000Y-101915000D03*
D14*
X136975000Y-98970000D03*
X137625000Y-98970000D03*
D15*
X137950000Y-100110000D03*
D14*
X138275000Y-98970000D03*
X138925000Y-98970000D03*
%TD*%
D17*
%TO.C,C303*%
X124477500Y-115390000D03*
X124477500Y-114430000D03*
%TD*%
D24*
%TO.C,U1*%
X130300000Y-117262500D03*
X129800000Y-117262500D03*
X129300000Y-117262500D03*
X128800000Y-117262500D03*
X128300000Y-117262500D03*
X127800000Y-117262500D03*
X127300000Y-117262500D03*
X126800000Y-117262500D03*
D25*
X126112500Y-117950000D03*
X126112500Y-118450000D03*
X126112500Y-118950000D03*
X126112500Y-119450000D03*
X126112500Y-119950000D03*
X126112500Y-120450000D03*
X126112500Y-120950000D03*
X126112500Y-121450000D03*
D24*
X126800000Y-122137500D03*
X127300000Y-122137500D03*
X127800000Y-122137500D03*
X128300000Y-122137500D03*
X128800000Y-122137500D03*
X129300000Y-122137500D03*
X129800000Y-122137500D03*
X130300000Y-122137500D03*
D25*
X130987500Y-121450000D03*
X130987500Y-120950000D03*
X130987500Y-120450000D03*
X130987500Y-119950000D03*
X130987500Y-119450000D03*
X130987500Y-118950000D03*
X130987500Y-118450000D03*
X130987500Y-117950000D03*
D26*
X128550000Y-119700000D03*
%TD*%
D27*
%TO.C,U201*%
X143350000Y-146997500D03*
X144300000Y-146997500D03*
X145250000Y-146997500D03*
X145250000Y-144722500D03*
X144300000Y-144722500D03*
X143350000Y-144722500D03*
%TD*%
D28*
%TO.C,C313*%
X135960000Y-120920000D03*
X135960000Y-121880000D03*
%TD*%
D29*
%TO.C,R303*%
X136930000Y-118950000D03*
X137950000Y-118950000D03*
%TD*%
D21*
%TO.C,R201*%
X147540000Y-145190000D03*
X147540000Y-144170000D03*
%TD*%
D29*
%TO.C,R302*%
X123217500Y-122090000D03*
X124237500Y-122090000D03*
%TD*%
D30*
%TO.C,REF\u002A\u002A*%
X123570000Y-134190000D03*
%TD*%
D31*
%TO.C,D201*%
X143250000Y-140070000D03*
X146050000Y-140070000D03*
%TD*%
D21*
%TO.C,R205*%
X127535000Y-104145000D03*
X127535000Y-103125000D03*
%TD*%
D32*
%TO.C,C301*%
X130317500Y-111980000D03*
X131277500Y-111980000D03*
%TD*%
D33*
%TO.C,SW301*%
X120300000Y-126800000D03*
X120300000Y-130950000D03*
X118150000Y-126800000D03*
X118150000Y-130950000D03*
%TD*%
D21*
%TO.C,R212*%
X137925000Y-104145000D03*
X137925000Y-103125000D03*
%TD*%
D28*
%TO.C,C202*%
X141800000Y-140080000D03*
X141800000Y-141040000D03*
%TD*%
D34*
%TO.C,L301*%
X130327500Y-113192500D03*
X130327500Y-114767500D03*
%TD*%
D13*
%TO.C,Q203*%
X129340000Y-101915000D03*
X129990000Y-101915000D03*
X130640000Y-101915000D03*
X131290000Y-101915000D03*
D14*
X129345000Y-98970000D03*
X129995000Y-98970000D03*
D15*
X130320000Y-100110000D03*
D14*
X130645000Y-98970000D03*
X131295000Y-98970000D03*
%TD*%
D21*
%TO.C,R207*%
X131295000Y-104145000D03*
X131295000Y-103125000D03*
%TD*%
%TO.C,R209*%
X135150000Y-104145000D03*
X135150000Y-103125000D03*
%TD*%
D16*
%TO.C,R213*%
X145940000Y-143270000D03*
X144920000Y-143270000D03*
%TD*%
D23*
%TO.C,C309*%
X128527500Y-115365000D03*
X127567500Y-115365000D03*
%TD*%
D35*
%TO.C,R301*%
X125500000Y-114380000D03*
X125500000Y-115400000D03*
%TD*%
D21*
%TO.C,R208*%
X130295000Y-104145000D03*
X130295000Y-103125000D03*
%TD*%
%TO.C,R206*%
X126535000Y-104145000D03*
X126535000Y-103125000D03*
%TD*%
%TO.C,R211*%
X138915000Y-104145000D03*
X138915000Y-103125000D03*
%TD*%
D32*
%TO.C,C201*%
X144930000Y-142280000D03*
X145890000Y-142280000D03*
%TD*%
D21*
%TO.C,R203*%
X123685000Y-104145000D03*
X123685000Y-103125000D03*
%TD*%
D36*
%TO.C,J103*%
X144300000Y-116550000D03*
D37*
X144300000Y-119090000D03*
%TD*%
D21*
%TO.C,R210*%
X134145000Y-104145000D03*
X134145000Y-103125000D03*
%TD*%
%TO.C,R204*%
X122690000Y-104145000D03*
X122690000Y-103125000D03*
%TD*%
D23*
%TO.C,C307*%
X126960000Y-111070000D03*
X126000000Y-111070000D03*
%TD*%
D22*
%TO.C,REF\u002A\u002A*%
X148380000Y-109510000D03*
%TD*%
D38*
%TO.C,C204*%
X144850000Y-130160000D03*
X144850000Y-124560000D03*
%TD*%
D39*
%TO.C,Y1*%
X138360000Y-121610000D03*
X138360000Y-120210000D03*
X137260000Y-120210000D03*
X137260000Y-121610000D03*
%TD*%
D40*
%TO.C,C205*%
X135850000Y-141025000D03*
X132900000Y-141025000D03*
%TD*%
D41*
%TO.C,C206*%
X128320000Y-133500000D03*
X128320000Y-136450000D03*
%TD*%
D32*
%TO.C,C302*%
X130317500Y-115980000D03*
X131277500Y-115980000D03*
%TD*%
D23*
%TO.C,C310*%
X124220000Y-123110000D03*
X123260000Y-123110000D03*
%TD*%
D33*
%TO.C,SW302*%
X120300000Y-120950000D03*
X120300000Y-125100000D03*
X118150000Y-120950000D03*
X118150000Y-125100000D03*
%TD*%
D32*
%TO.C,C305*%
X132370000Y-118180000D03*
X133330000Y-118180000D03*
%TD*%
D36*
%TO.C,C101*%
X119755000Y-107640000D03*
D37*
X122295000Y-107640000D03*
%TD*%
D23*
%TO.C,C304*%
X124227500Y-121060000D03*
X123267500Y-121060000D03*
%TD*%
D32*
%TO.C,C306*%
X132370000Y-117180000D03*
X133330000Y-117180000D03*
%TD*%
D42*
%TO.C,J201*%
X121890000Y-139390000D03*
X121890000Y-145640000D03*
D43*
X126690000Y-142340000D03*
%TD*%
D44*
%TO.C,U202*%
X131330000Y-138355000D03*
X133630000Y-138355000D03*
D45*
X133630000Y-132055000D03*
D44*
X135930000Y-138355000D03*
%TD*%
D46*
%TO.C,L201*%
X143230000Y-136160000D03*
X143230000Y-133160000D03*
%TD*%
D47*
%TO.C,J202*%
X131230000Y-146590000D03*
X136230000Y-146590000D03*
%TD*%
D35*
%TO.C,R202*%
X147540000Y-146090000D03*
X147540000Y-147110000D03*
%TD*%
D23*
%TO.C,C308*%
X126960000Y-112070000D03*
X126000000Y-112070000D03*
%TD*%
D13*
%TO.C,Q202*%
X125580000Y-101915000D03*
X126230000Y-101915000D03*
X126880000Y-101915000D03*
X127530000Y-101915000D03*
D14*
X125585000Y-98970000D03*
X126235000Y-98970000D03*
D15*
X126560000Y-100110000D03*
D14*
X126885000Y-98970000D03*
X127535000Y-98970000D03*
%TD*%
D34*
%TO.C,L302*%
X128227500Y-112577500D03*
X128227500Y-114152500D03*
%TD*%
D17*
%TO.C,C312*%
X138900000Y-118990000D03*
X138900000Y-118030000D03*
%TD*%
D36*
%TO.C,J102*%
X144300000Y-110335000D03*
D37*
X144300000Y-112875000D03*
%TD*%
D21*
%TO.C,R304*%
X126537500Y-115400000D03*
X126537500Y-114380000D03*
%TD*%
%LPD*%
M02*
